<mxfile host="app.diagrams.net" modified="2023-01-02T05:20:53.947Z" agent="5.0 (Macintosh; Intel Mac OS X 10_15_7) AppleWebKit/537.36 (KHTML, like Gecko) Chrome/108.0.0.0 Safari/537.36" etag="2WJ2ZD9wpTehBUmibLlI" version="20.7.4" type="github" pages="2">
  <diagram id="cDW44M5quG9YftOdg6lO" name="Page-1">
    <mxGraphModel dx="1194" dy="552" grid="0" gridSize="10" guides="1" tooltips="1" connect="1" arrows="1" fold="1" page="1" pageScale="1" pageWidth="1100" pageHeight="850" math="0" shadow="0">
      <root>
        <mxCell id="0" />
        <mxCell id="1" parent="0" />
        <mxCell id="X_FQUrlBMiVjyf27Dk9M-1" value="" style="whiteSpace=wrap;html=1;rounded=0;shadow=0;glass=0;sketch=0;strokeWidth=2;fontSize=11;fillColor=none;gradientColor=default;strokeColor=#E6E6E6;" parent="1" vertex="1">
          <mxGeometry x="52" y="22" width="959" height="670" as="geometry" />
        </mxCell>
        <mxCell id="P2rhJr64TXhiE6YPwsJS-4" value="" style="shape=image;verticalLabelPosition=bottom;labelBackgroundColor=default;verticalAlign=top;aspect=fixed;imageAspect=0;image=data:image/png,iVBORw0KGgoAAAANSUhEUgAAADYAAAAoCAYAAAC1mQk2AAAL3klEQVRoge1Za0wd1dp+5sK+sLdFNi0IkiBSK5eiRVuUxjQxqYmUiBCtURODJDVRbJqoaaRRG1ONibE/TLUNP2ov4o8aTdtYLZYIsQEbEqlKhSJFqHLfpeUOezMza57zo8w6ewD1fMl3Us/JeZIVZjOz1vs+76z3st5RbNsm/guhK4pyo3X4t0C90Qr8u/A/Yv9p0GN/kAR5PZao6nXOtm1DURTcaF90dFMURer4Z3rpwHXlSUJVVczOzmJ6ehqGYQAAgsEgEhISoGnakoVs25bXywkhKQ3jwDHYYjhrOXo4BJxhGAamp6cxPz+PuLg4BAIBBAIBSXaxbJ0kpqamcPHiRXz33XeoqalBb2+vfEDTNGzfvh2VlZXIy8uDrusgibm5OXz66aewLAupqakoLi6W5B0IIfDll18iHA5DVVXk5uZi48aN0hAOEee5K1euwO/3o7y8XCo9Pj6OlpYWvPfeezh79qxcOysrC48//jjKyspQWFjoWtMRzvz8fHq9Xvp8Pno8HqqqSlVVqes6dV2npmkMBAKsqqqiEIK2bXN6epq33XYbfT4fQ6EQR0dHKYRgLNrb26mqKuPi4ujz+ZiTkyPnO7Btm4ODg/R4PPR6vczJyeH4+DgNw+Dk5CSzs7Op6zo9Hg81TZO6aZpGn8/HYDDIt99+m7Ztu9bVAWBgYACapiEzMxMpKSlITk5GIBDA8PAwurq60NPTg0gkgsOHD2P79u3Izs5GIBBAZmYm+vv7MTs7i/b2dmzatMm1HQYHB2HbNmzbhhACk5OTuHbtGpKSkqR1FUVBXV0dTNOEoijYuHEjAoEAIpEInnjiCXR3d8O2bWRmZiInJwdZWVkAgO7uboTDYfT09CAcDi+7t3n8+HH+9NNPnJmZkcydceXKFZaUlBAAAbCsrEzee/XVV6koCnVd53PPPUfLslxW++CDD+Q8RVHo8/nY3NxM0zRdb2zTpk1UFIWapvHYsWMUQvDQoUNy7p133snR0dElulmWxV9++YUDAwMuuVxwTAohpFKLh2maPHnypBRy8803y3snTpygqqpUFIUJCQkcGhqiZVly8aqqKqqqyrS0NKakpFDXdX788ceuZ4QQTEpKksR7enpomiaff/55aZBnn332D/WzLGuJC5Ck6kSq2KgXO0hi1apV8g1PTU3BsizYto177rkHoVAIiqJgamoKra2trjTx1VdfwbZtlJaWIisrC6qq4vPPP4cQQobs2tpaXLt2DSRx++23Izk5GQCQkpIig8sXX3yB0dHRZfXTNG3ZSOv6jxACo6Oj6O/vx+DgIMbGxmBZlivaKIoC27ahqirS09OxefNmKaSpqUk+19nZid9//x26rqOyshLJycmwbRtnz57FzMyMTAUffvghHONu2bIFXq8Xqqri0UcfRSAQAACMjY1h69atqKurQ1dXFyKRyFKfWs7HLMtiW1sb09PT5ZaLHQ888IC81jSN0WhU+kd9fT0BMC4ujg8//DBt26YQgtu2bSMApqSkcGpqip988omMtI2NjRRCcGxsjD6fj4qicOXKlRRCyG1lWRZbW1vp9/upKIpLH6/Xy/379/Pq1asyyi7xMdu2uXPnTnq93mVJLR6xxCzL4sDAABMTE6nrOteuXcuJiQkKIbh+/XpplPn5eV64cIHx8fH0eDzct28fLcvib7/9Rl3XCYBbtmxxKegYfOfOnQyFQq4g5PwNhULct2/fkhRCknjrrbfo8/mk1V966SWeOHGCp0+f5smTJ1lbW8sdO3a4iM3Pzy8Rrus6fT4fL1++TMMwGAwGqaoq9+/fT8MwGI1GWVJSQr/fz4qKCpqmydbWVqnogQMHaBjGkhwnhODQ0BBPnTrF3bt3My8vj5qmSXIej4eVlZU0TdM1FykpKXLxXbt20bZtGoZB0zRpGAZnZ2fZ1NS0LDHnrdXW1sqkeebMGf7666/UNI3x8fEyTAshuGfPHiqKwvvvv5/T09MypDvbMzYNxEIIIUnPzc2xpqaGaWlpVFWVAOj3+9nW1uYmFhcXRwD0eDxLWJOkaZpsaGhYdis6Vu3p6WEwGKSmaSwvL+dHH31EAFyzZo0M00II+YYCgQBHRkaYnZ1NAFyxYgWnp6eXyF4MZ6sahsGJiQnm5+dLnd5//3135cGFsBsXFyeLz8W4ePGivCYJ0zTh9Xrl76SkJCQmJiISiaCjo0OG34yMDFf4D4VC8Hq9mJubQ319vaxJS0pKEB8f75LNhRoytv50/mqaBr/fjw0bNqCjo0NGWBcc/wLAY8eO0bIsOUzT5JEjRxgKhVyR6dtvv3U5uWEYfOWVV2T14OyCF198UVpZCOGyclJSklyvubnZtZ4QgrW1tayrq+PMzIxMwrG6/fzzz3TcyOPx8Ny5c+6tmJmZKZX2+/2sq6vj0NAQOzs7WVpaSlVV6ff7GQgEpCKvv/66K9sbhsHm5mYGAgGXAd599135nBNoiouLpW84LjAxMbFkuxUWFlJRFBYUFHDv3r3s7e3l8PAwh4eHefToUSYmJkq/zs/P5/z8vJtYX18fs7KyXD7k8XgYFxcn/aGuro4dHR2Mj48nAFZUVLiIOVbevHmzKzV0d3e7hJmmyb1797qIHTp0aEkktCyLW7dupaIocjgnBK/X65pfXFzMcDi8JJfBtm22tLSwuLiYmqZRURSqqirD6KVLl6Sw6upqPvPMMxwfH1/i1EIIHj9+nAUFBVy3bh2rq6uXOL8QguFwmA8++CDXrFnD9evXc25ubtkgMTk5yYMHDzInJ0ceVxySqqoyMTGRVVVVHBwcXDZBK3SiB4CrV6+iv78ffr8f6enpCAaDSwLJjcDk5CR6e3sxPj4OAAiFQsjNzYXH4/nDOS5iMZc3vMexGLG6AX+tn4vYfwKc0O6o7aST2N+Kori7VH9ncKGpI4TA2NgYJicnEY1GMTs7C0VREB8fjxUrViA9PR26rl/vefxVxv87wDRNfv/993z66aeZmZkpa0VnAGAgEOCZM2dILvQ8nKytadoNfCd/jiNHjmDHjh3yLKZpGrxer+tsNjc3h5GREQCAftddd6GsrAxPPfUUcnJyAPxx7+9G4qGHHkJzczP8fj+8Xq88kEajUYyMjOCxxx7D8PAwfD7f9QkrVqyQheibb77JkZGRPzy83UjE9jgMw2BfXx/D4bD8fffddxMA6+vrSZIYGhrihg0b5D696aabuG3bNtbX1zMSifxtyAkhGIlE2NjYyPLycvr9ft5xxx0cHh7mxMQEU1NTCYDt7e0kF7pUs7OzPHz4sKscUlWVt9xyC8vLy9nS0rJsJ+j/k3Rs5ykWlmXxwoULfOSRR2R9CIDp6ek8f/48DcPgjz/+SEVR6PV6GYlE/knMQV1dHYuLixlb8WPhZF1UVMRdu3bx6NGjPHfuHPv7+2XlvVxb7K/GYjKWZXFmZoZ9fX1samriwYMH+dprr3Ht2rUuXRISEvjkk0+yq6tLVvwvv/wyAfCdd96Ray9beZw6dQq7d+9GZ2cnTNPE4vsOnC5VUVERcnNzkZSUhJUrV8Ln87nOdrFfSLiQYKPRKKampnD58mWMjo7i66+/RmNjIwYGBuT6TvfLtm34fD7k5eWhpqYG9957L4DrXbXe3l4UFRXBtm0MDAz881y33HawLIvRaJTffPMNKyoqZDMltqrGQh6J7fF7vV4Gg0EmJCQwISGBiYmJTE1NZUZGBm+99VauWrVK3gsGg/T5fHK+U4A7azt9jYyMDL7wwgtsbW3l/Py8K7AJIXjgwAH6/X42NDS4doOLWCycVphhGLx06RKrq6u5evVql3Cn4l5M1BmxCTR2LL7nPI+YpFtYWMg9e/YwHA7TMIwlHV+HxBtvvMHPPvtsSXv9X6oVnQQ+MjKChoYGtLa2oqOjA0NDQ+jr60M0Gl32w9xyWPzhjiQSExORkZGBtLQ0FBQUYN26dSguLpY56c/yqmmay367+z8VwUIIlyAhBNra2nD+/HmcPn0aP/zwAyYmJmBZlmxjc3FxquvQNA0ZGRm47777UFpaiuzsbKxevdolR1XVf6lQcIy5GP8A3q2uTQ67t5MAAAAASUVORK5CYII=;" parent="1" vertex="1">
          <mxGeometry x="603" y="86" width="54" height="40" as="geometry" />
        </mxCell>
        <mxCell id="P2rhJr64TXhiE6YPwsJS-7" value="" style="whiteSpace=wrap;html=1;fillColor=none;strokeColor=#1A1A1A;" parent="1" vertex="1">
          <mxGeometry x="599" y="80" width="361" height="290" as="geometry" />
        </mxCell>
        <mxCell id="w0dWxcjNK54hNHP3luBS-40" style="edgeStyle=orthogonalEdgeStyle;rounded=0;orthogonalLoop=1;jettySize=auto;html=1;exitX=0.25;exitY=0;exitDx=0;exitDy=0;exitPerimeter=0;strokeColor=#FFB570;startArrow=openThin;startFill=0;endArrow=none;endFill=0;strokeWidth=2;" parent="1" source="P2rhJr64TXhiE6YPwsJS-10" target="w0dWxcjNK54hNHP3luBS-4" edge="1">
          <mxGeometry relative="1" as="geometry">
            <Array as="points">
              <mxPoint x="650" y="190" />
            </Array>
          </mxGeometry>
        </mxCell>
        <mxCell id="w0dWxcjNK54hNHP3luBS-43" style="edgeStyle=orthogonalEdgeStyle;rounded=0;orthogonalLoop=1;jettySize=auto;html=1;strokeColor=#FFB570;startArrow=none;startFill=0;endArrow=openThin;endFill=0;strokeWidth=2;exitX=0.5;exitY=0;exitDx=0;exitDy=0;exitPerimeter=0;" parent="1" source="P2rhJr64TXhiE6YPwsJS-10" target="w0dWxcjNK54hNHP3luBS-41" edge="1">
          <mxGeometry relative="1" as="geometry">
            <mxPoint x="670" y="250" as="sourcePoint" />
            <Array as="points">
              <mxPoint x="671" y="260" />
              <mxPoint x="671" y="180" />
            </Array>
          </mxGeometry>
        </mxCell>
        <mxCell id="w0dWxcjNK54hNHP3luBS-66" style="edgeStyle=orthogonalEdgeStyle;rounded=0;orthogonalLoop=1;jettySize=auto;html=1;exitX=1;exitY=0.5;exitDx=0;exitDy=0;exitPerimeter=0;entryX=0.52;entryY=0.02;entryDx=0;entryDy=0;entryPerimeter=0;strokeColor=#FFB570;strokeWidth=2;startArrow=none;startFill=0;endArrow=openThin;endFill=0;" parent="1" source="P2rhJr64TXhiE6YPwsJS-10" target="w0dWxcjNK54hNHP3luBS-46" edge="1">
          <mxGeometry relative="1" as="geometry">
            <Array as="points">
              <mxPoint x="740" y="280" />
              <mxPoint x="740" y="400" />
              <mxPoint x="538" y="400" />
            </Array>
          </mxGeometry>
        </mxCell>
        <mxCell id="w0dWxcjNK54hNHP3luBS-73" style="edgeStyle=orthogonalEdgeStyle;rounded=0;orthogonalLoop=1;jettySize=auto;html=1;exitX=0.5;exitY=0;exitDx=0;exitDy=0;exitPerimeter=0;entryX=0.564;entryY=1.067;entryDx=0;entryDy=0;entryPerimeter=0;strokeColor=#67AB9F;strokeWidth=2;startArrow=none;startFill=0;endArrow=none;endFill=0;dashed=1;" parent="1" source="P2rhJr64TXhiE6YPwsJS-10" target="w0dWxcjNK54hNHP3luBS-14" edge="1">
          <mxGeometry relative="1" as="geometry">
            <Array as="points">
              <mxPoint x="660" y="172" />
              <mxPoint x="255" y="172" />
            </Array>
          </mxGeometry>
        </mxCell>
        <mxCell id="P2rhJr64TXhiE6YPwsJS-10" value="" style="sketch=0;points=[[0,0,0],[0.25,0,0],[0.5,0,0],[0.75,0,0],[1,0,0],[0,1,0],[0.25,1,0],[0.5,1,0],[0.75,1,0],[1,1,0],[0,0.25,0],[0,0.5,0],[0,0.75,0],[1,0.25,0],[1,0.5,0],[1,0.75,0]];outlineConnect=0;fontColor=#232F3E;gradientColor=#F54749;gradientDirection=north;fillColor=#C7131F;strokeColor=#ffffff;dashed=0;verticalLabelPosition=bottom;verticalAlign=top;align=center;html=1;fontSize=12;fontStyle=0;aspect=fixed;shape=mxgraph.aws4.resourceIcon;resIcon=mxgraph.aws4.single_sign_on;" parent="1" vertex="1">
          <mxGeometry x="640" y="260" width="40" height="40" as="geometry" />
        </mxCell>
        <mxCell id="w0dWxcjNK54hNHP3luBS-1" value="" style="whiteSpace=wrap;html=1;fillColor=none;" parent="1" vertex="1">
          <mxGeometry x="80" y="80" width="360" height="290" as="geometry" />
        </mxCell>
        <mxCell id="w0dWxcjNK54hNHP3luBS-3" style="rounded=0;orthogonalLoop=1;jettySize=auto;html=1;endArrow=none;endFill=0;" parent="1" source="w0dWxcjNK54hNHP3luBS-4" target="w0dWxcjNK54hNHP3luBS-12" edge="1">
          <mxGeometry relative="1" as="geometry" />
        </mxCell>
        <mxCell id="w0dWxcjNK54hNHP3luBS-4" value="" style="sketch=0;aspect=fixed;html=1;points=[];align=center;image;fontSize=12;image=img/lib/mscae/Azure_AD_Domain_Services.svg;" parent="1" vertex="1">
          <mxGeometry x="219.59" y="160.0000000000001" width="50" height="50" as="geometry" />
        </mxCell>
        <mxCell id="w0dWxcjNK54hNHP3luBS-5" value="&lt;span style=&quot;font-size: 10px;&quot;&gt;Enterprise App&lt;br&gt;&amp;nbsp;Amazon Connect&lt;/span&gt;" style="text;html=1;resizable=0;autosize=1;align=center;verticalAlign=middle;points=[];fillColor=none;strokeColor=none;rounded=0;" parent="1" vertex="1">
          <mxGeometry x="225.7" y="305" width="100" height="40" as="geometry" />
        </mxCell>
        <mxCell id="w0dWxcjNK54hNHP3luBS-6" value="" style="shape=image;verticalLabelPosition=bottom;labelBackgroundColor=default;verticalAlign=top;aspect=fixed;imageAspect=0;image=data:image/png,iVBORw0KGgoAAAANSUhEUgAAAKAAAACLCAYAAADmpJLYAAAgAElEQVR4nO2deXAc133nP6977hncAEGCpHiLN3VLlmhaPuQklhXbcRy51nHsbLLrjbNJKqlk461ssls5NuvKJnEq9sbXylc2iiwrlmRZtmhRkqnDIkVKPMQbIA6CxA3MPdPne/tHz+AgQRADDIiD86ma4lEz3a+7v/177/3e7/d7Ip/PKypUmCe0+W7AUkAqhelIcpY7301ZdFQEOEukUgzmHI725+mIm/PdnEVHRYCzwJGKvpTNI8cS/N/jCTY0hOa7SYuOigBniOMqOkYMPv/qED86meYja2OEfJXbWSqVOzYDHFdx5FKGP3uhn0eOxdm2PMi7N1bNd7MWJb75bsBiQimFAn7SmuJ/HxjmwIDB7c1hHlobI+rXJnyviBBiHlq6eKgIsAQcBY+8NcwXD43QkXMAxfZlQfZsjE74XspwaR0y2LQsTE1Qn5/GLhIqXfA0SRoOf/xiH//j9SE68w4K2FUf4oE1UWpDE0XWk7H5xzeGeOJYfH4au4ioWMBp0D5i8N9fHuZHnWnyUgECXMWtzWHetTY6oZt1pKI3K/lBu8HpYYcHt9Swoto/f41f4FQs4DV4vSPFH+zt40cdafJuYWwnYV3Mz90rQjTFJr7DI1mbQ11pTBe6sw7/58DwPLR68VAR4BQ8cTzOf9s/xMt9ec/yCUHR+t3TEmbPmgi6NnGS0ZNxeLYjBz5F2lU8dS7DsZ7s/FzAIqAiwEmwpeJLrw/zNweHeXPEwJAKijpTioawxm3LQ6ytC0z4nWFL2uM2bw+bIEAKQbfp8ievDl7/i1gkVAR4GYm8w+/8pId/PDrC6bSFBWOWD8CFPSsjvGtNhMBljufBrMOhizkMt2gtwQLe6rX4wcnE9byMRUNFgOPoGDH57N4+nmxL0523cWDM8gEoRX1QZ/eqGDc3Xrns1pGyeKYzMyo+77eKtKP464Nx0pY7wUdYoSLAUV5rT/KHe/v5cXuGtCU98VzuQ5aKdywPcldLkIh/4q1Lmy6tQxadCXviXRXgojg1YvLIoUHciv4mcMML0JWKp08k+PNXh3n+UgZTycm/qBQIjTtWRdnadKX168/YHO3J48KYBRxF4KD46lsJLiRNXFlRYZEbVoBKKTKWy5cODvL5N4Z5bcDA0fDuyGSrZ67ivuYA97YEqb7M8SyV4lzc4vnuHGiT/FiAEtCZk3z5UBzTqQiwyA0pQFcq+tIO/3BgmC+9GefoiIXUCn2umuwDCMH71sW4ZdmV1i+ZdzkzZNGVtr3/kMr7jI73Cn/6BN89neJobw7LvYqlvcG44QRouZLTQwZ/8dogXz0a56JRGO+NDvom+UjFLY0B7mwJUxu5cvHoQsLi8MXclScbb+gK3fKgKfm7Q3EShqxMSLjBBJizJIe6c/zNz4b51skkQ5b0usxrRawoeHB9FbsaQ2iXfdeRirMjNgf6jMm73/EIAT7BjzpyvNKZIW9XrOANI8Bk3mFfW5ovHBzme+fSgLi2YACkYnNtgLtXhq9YdgOIZx1ODxn05pzJx46TH5SvvjXCpYx9w09IbggBDmYc/u1Uir8/OMyznTnw6aBdbbYxDqXAVTy4Psb2puAVy24ArSMmh3ty17ai49EVr/QaPN+WJWPe2FZwSQvQlYr2hMnXj8X5wsERDg6a4NfwBmfTsDwKVkd87F4doXkS62c6kpNDFm8OmKXdSeVZ3+8cjdM6bGDfwBOSJRuOZTqSsyMm3zie5JvHE1iuAF9RfNPEVTy0Icb2ZUEC+pUK68vYnBowiJuyIGym1w0LAQKOjZh873SalTUBVlQtaVtwVZbkVbtScXbI5AsHR/jq0QSWy/TGe+NRijq/xnvWR1lRNXk83+khg8P9+dKPXcSv8e2TKY705jFu0AnJkhTgUNbh8VMpHjuVAqEhtBlcpqt4YG2UzY0hgpNkuxm25O0hm+NxC2YadS8ESdPhuyeTdCUt5A3olllyArRdxesXcuw7ny1YJoWa7piviFJENfjo1mpWXSWauTtp0TpoYs12cVcXPN6W4UCPQda68azgkhNgd9Li+Y4Mx0YMzzIJNfaZrgilYvfKMNuWBYkEJr9FJ/pMjvUbTB61UAKF7vuJ43HODho3nFtmSQnQciTPnc/wbGcWfDMRhSdSv4JP7axjZWxy62c6kiNDJseHzZmP/8ajC/ZdMHipM8dIzpn98RYRS0aASilODhi8fCFLf94pWLySjwJKsqPJx66WENGrpFSeHTRoGzZmZfiuIAD/fCLOW715nBvICi4ZARqu4tFzKZ7uyszCuSQQFnz21kaaI5NbP6UUB3vyvDWb2e9kaILWEZd957NcTFrlO+4CZ0kIUCnF610Zjl/KlzTXmORI1FXp3Ls2ekXIVZGMLTk1bNGVleUVIEBI8KWTSX7anb9hxoJLQoApw+V75zK83Juf+RUpBRb8+T2NNIevbkLP9OXoTBhzd+dceKktw8n+/A0RLbMkBPj06QQHLmZmPybz6+zZWEU0ePXbsv9SjsMDZR7/jUdTPNGRZd8Fg+wN4Jxe9ALsjBv8uD3HuYQ9O1G48Llba1ge8l31MCM5h9Zhh+G5rGosQErJD08nOXBh6ecTL3oB/tPRBC9cynkRzbMRoKP41dvriAW1q1a0evNSltYREzVb399UCAEaHO43eKkjz0AxynqJsqgFeKgrzbHuHGmrUK9lfBj9dAWiFFiSz+ysZnnEN+W84qUegxMJyzv0XI7PhMD2CZ5pT/Ni59K2gotWgIYjeeREmsPD9rio5ss/00TCb97dQNh/det3KWnRMWSRMa7TuEwIOlIOL3dmOT9sXJ9zzgOLVoD7zqU50msyq4UDpdAEfGJzjA11AfQpNHu4O09n0kJpAsQ0gllnjcIRiqc7Mzx9PouzRGfEi1KAIzmH755J0ZqyZq0Dn4TfuqeBkO/q1g+83A/pqkKGnJp7/QEIGDEkr3RmODJZ0tMSYFEK8PGTCd4YyJOXEpDMyPusFD4B71oeYEdz+Jo+5XeujfLghipWhn3eKa8HhQnJgV6DZ9oypIyltw/JohNg+4jBM61p+vLOrANRQhJ+644GQj5xzVrOzdV+Pn1bLe9dEyMkBLjM7USkiBAkbMm+rgwvdaTn/nzXmUUnwK8dS3B0xMQa7Qpn0B0WrN+OBj971k2/uv3auiCfuaOWd98UneWSX4kIOBu3eK4tQ88SWydeVAJ8ozvD8+0Z4uOLB83QAkY1waduqaU6pJdUyf6W5SF++/Za3rUy7FlBYM7VKAQ5F37ak+ep80vLCi6apKS8I/nq0QTdGXuW8QYKHVgbDfLBTTUl/9yvCd65OkIi55IxXd4aNply+lwuBFzIOOw7n+H9q6NsmqRA0mJk0VjA/ecz7O/Ok3YmczqXgIIqXeOjm2Msu0qy0bUIBzTeuz7Cr++sYVuN36sDM9cIgVRwtN/kidMp7CVS521RCHA4a/PIkTgjloPX544vY1XaqocmoCXi5+Ed1bNqU0PUzwdvruLhrdW0hLTChGSORaEJeg2X5zqzHLm0NNwyi0KA/3Ymzav9BbfLqNbGC3EaKM+HV+3T+Ln1UdbWB2fdrpaaAL+0tZpf2lRFjV9cJ0sIbQmL755IkjQWf/j+ghfgxaTFI0fipKUsrfzFZChFY1jnU7tmZ/3Gc3NjiE/dWsf71sRGzzGnCMGIKXnhYo6XOhb/OvGCF+DXjozQljRxy/Bgq/wa97SE2bosXIaWjbGtKcRnbqvlnpbwZXUB5wgNLmQdHj2RpC+1uN0yC1aASinODRr807E4uWL9vtHnqi77XPNgoGBl1M9ndpU+870WPk1wT0uE/3pXAzvrg8x5IWghyLuKN/tNnjizuN0yC1KASimytuQffjaEZVGY6V5eP7cUAUJUF+xqDnLbqui1vz8DQj6N+1ZH+MO76tkQ8839eFAT9JiSb59KczGxeK3gghSgK+HwxRzfPp3G1pj92A9YE/Px6W3V+MudSDSO6pCPB9bH+O3b61nm1woinEshSvrSFt86EsdyFmf4/oIToFSKeN7h714dQk6nht+1UIqgJthYH+Se4kRhDmmI+fnI1ho+uaWW2JwHrsKQ5fAvZ1KcGlycMYMLToCWo9jXnmHfxVyhtMYsD6g86/dLG6ombCo9l7TU+PlP76jjgbURfEqbQyPo+UCHDJcvHxxZlCV/F5QApVT0pC3+8rU+CPlAzDDUqohS+IDNdX4+sHnurd94VlX7+av3rWBnY2hmKzbTRQgyruK5jhyvdy0+t8yCEaBSirTp8tiROB3DCoQ7w/Ia4w8KN8V0HlgToWaKXN+5QBOCNdV+vvKBZhqDGqg5jOUTEFcuf/3a4KKzggtGgFJBR9rmL4/GoRwTVaXQFGytD/GhLeV3vUwHnybY0hDk0YeWE1Oi4A6ag/5YCGyl8faIw9OnEiilFk1S+4IQoFKKwYzDt94o4+bOClZHfdy/KsLy6sC1vz9HBHwad6+O8uWfX47PLohiTkSoSEmX39s/QHYR7cS0IARoS8WZEZOvnkgVUh6ZtotvUhTgCrbXhXhoy/QDTueKoE/jQ9tr+NxddfisORQhYDqKf3x5AFexKKzgghBgd9Lm718dKtT00y/7zARFbUSxfYWPNXXzZ/3G49cEf/zuZj6+uYrAHK6UWAr+5tAInXHrumQMzJZ5F2Ay7/ByR4aXLhjj0h1nmN9bRMI7lkX42JaaK3Y2mi+EEPg1wT881MIdy4JeJHC5FVLcJFuHv3hxgPwi6IrnXYBtCZu/eyOBo1OWFQ9vU2mNO1eE2dpU3qCD2SKEIBbQ+fqHV1Ef1AsJfeUXidIEz5xPc+BCesGvkMyrAPtSFnvPpOhMmeAvpljOEgm3NwV575oI/usRKj8D1tYE+H+/2EJLWC9/9EzhJTZ0+P2fDpBc4IXP502Atqt4a8DkyydSuHqZKg1IL0tu07Igt7ZEZn+8OULXBHevjPBXe5poCepzs1KiCdpHbH58OkXGXLj5xPMmwI64yQ9OphhK2170ga3AmexDCR/F7qYgH1gTIXydlt1mStCn8cHN1Xz2tjqaA1p5o2eEVytHCvifB4boTi/cTRHnJSvOdhWDWRvLdvjQuuhlYfaz44ENUe5aOTchV+WmOqTza7fW0ZWweaIjQ8IuQ9T3eDTBhYzDd48m+d17G2iILrwkSJHPz2W1xcmRShHPuVxKW+hlnqU2Rnw0xXwLZvZbRClF3lEM5Wz6kjbdCZtjQxbn0jan+g0uZB1MqcorQACpWOnX+daHW7h7VYTAJLs+zSfz8kpoQtAQ9S3IN3K2SKUwXUU869CbsrmUtOlKOxyNm6QNSd6SZBxJ2nTpz7vELTkWQD0XL40muGQ5fPN4nDV1AVbXLAy/aJGlp4DriOUq4jmHvrRFX9rhQsrlfNKhN2eTt11SeZeEKUmYkh7DwS7OBS43QnNtrXXBc+czfHB9FXUhndhV9j+ZDyoCnAaGI0nmXUbyDn0ph46kTXvaZSTvksk7JE2XpCkZyrsMmi6p8REp433p8+YWEoxYki8ejbOpOcTOpooAFySOVKTyDsN5l8G0w8W0w5mURSIvyeRdUqbLSF7Sm3XoMyUZS3mz12LaQLFY0kL0P/oEB3rz7G/PsDLio36BDH8WRiuuM1J6sYfDeYdEzqUv7XAp79KdcUjlXBKGw0jOpTfr0p6zyVnS85FPWCEUl9290YHcdb6aaSK8cLB/OZFiV3OIe0PRBeGoX9ICdKQia7kk8g4jWYeBnORizmUg55LOOQznHeI5l4Gsy6WcQ0/eHduztyiyYkLeFb2WuvKf16E6x2w5OmjyzNkMa2oDrKmd/wnJkhOgIxVZ07NiibxLwnBJZl0Gcw59GYeujONtZlhcqBeCmpCgJuxnm/DPzoDNMoPguqAgbzqM5BxWVfvR5zBLcDosOQFK5cUXZi1J1nQRCJqq/DRV+dnerLwJ6GxD/a+KWPgCLJSwWXGVrWivN/PiiK5QocjCcotXuOGoCLDCvFIRYIV5pSLACvNKRYAV5pWKACvMKxUBVphXyu6IvloydCmbwVS4cSirAJVSZB11Rf5BQBcEdRZclHKF+aesArQVfPIHl9jblh5bknLh0ztr+Nw7G1hXvzR296lQPso6BjzRk2M4bnuH9enex69ztN/kWK9ZzlNVWCKUVYB727JczLmgedufisJ+tydSFoeGzEVXu67C3FM2AcZzDvsv5BkwJWgKhUQhQShcpTjVn+d479LYXqpC+SibAH/WlaU35yAFjEZmjosefn3A5KVL+XKdrsISoWwCfLQ1xUXD9QQn4f7mEFtjPnC8KM1UzuH8kEVfyi7XKSssAcoiwM64SdugVRjjCXAV966MsLExOFpwUgGtwyZHeipWsMIYZRHgT9tyDOcVqhjP7hOsbgjwnlUR1sf8gABN42TcZv8lA9OtTEYqeMxagLZUPNmWYsh0Ct2v5N7mIJtr/exeHWZbQ7CQUSbI2JKzg3naBitWsILHrAV4qi9HW9was2qu5P5VUdbXBtjQEKSlzl84iwBN0JqweO3i4tzVp0L5mfVKyNNn08Rtz/cH0Bjys7M5REPUR0DXuH1ZiE3VOVpTDgjBpazkcI/Bw3mH2uu8d8eNiOFIFF5NQr+Y2Zq8KxV5R5LOu+QciSMVYZ9GTVinOqjPap1/VgpI5Bz2dWZJOwWXiyu5d0WYjXUBArpnXO9eEeKWxgCtCQt8GoYDrSM2x3vyvGtD6RXsTVdysi+PYcmyry2bruKWljDVIX3CsXuTFt1JC9tV6EJgu4qWWj9r64Mzqu6VsyUdwwbjq+fWRnSao35CU9Q1tBxJT9qmO27h1wQSha4J1tcHaSpkuSmlMBzFy+1pXu4zSOQ9AWoabK8L8NEt1TRXXTsjTirFcNbhjYs53uw3uJRxyVsSy5VI5RVdjwQ1VsQC3N0cYM+6GFVBreRnMisBvt6d5ULG9VJsNS/zfs+aKKtrxi5wTW2ArY1BqrqypJXyuuG0zfMXZiZAy1V852iK1rjJaErrDGuZX46dd/nCL64kFtQZny7bOmTw6IkU3WkHTRM4luRjO2r4tdoA+gyqC/RnbP7+tSGSxRdXCh7cEOWhLdVTCjDvKF6/kOM7R+L4ghpKQmNI5z/fXUdTzI/jKk4P5vnGsRRH+3IcS5jkLUbvzZ11AXbfFLmmAAfSNvu7cuzrynJm0OBs0iJpjSslLArpp0IR8+n8tNbPcx05HtoQYc+6GNHA9GvPzEqAj51NknK81Y7ixjDblgWpDo01IBLQ2bUsyOa6AIeHLNAUw6bLsUGDnqRFS4nlwpSCo0MGB/vyTFDJbAXoKm6rDhDUxRUD42RecaTf4njc8s5pSe5aHZ1xUdOsJXm+K8egLb3jOYqNtf5regekVFxKO/z0Uh6CGkjYEPOTsyS2Kzk7aPC/XhnmyY7MWEWH4sUoSDuSqU7hSMWJAYPvn0qxtz3jXW/x5daYuN9dYYEhIyWHhk0ODRqcGjQ4PWLziZ01LIv6ptU1z1iAF5MmP+s2MGThLXYU714dZk3Nldn2u5aH2LUsxOFBk6JjsCdp83pXjl/eNYvyEOoqfy8yofLquC+Mt1qFtzrgg9/b3cjymB/t8moBGgi98DtNeH/OZtyjgfAXNjActSbT/LEY1w4UQvfGd0M5l789OMyTbRnwF7YFm1AaWnnd41XO40jFGz15vvZWnOfaMyRt6Z1HKZDg16EpqFEX1JEKBk2XIaOgZg3wwesDJudTNnlX8Ru31rJ8GsnvMxbgT1ozpArjC4QGSrJ7TZTm2JWHXF4VYGtjiPpglhHbBSG4mHV5qSvHg1urS6rnrGuCd6wI0xTWJ9xLqdSVFukyAQoBOUfx2oCB7Y6rRmor/t0tNXxwSxWRwJVt0QSIy56cQs24CIIrQRXLeMx6O1pFzpK8cD7Ld8+kC5v9SHY3h2iO+Qn7NBylGMg6ZMyrm7+3+/N85a04z7SlPaOiecduCGrc2xxmbUOQNVGdhpAPqRR9OYeOpMOJ/hyHhiwkAnQYMF2+dmSEVTEfH95cdc1NIksWoFIKy1U8cSpFXoz+J+uq/GxpChKd5AEGdMHOxgC3NgR4sTcPmiJpuxwfMmkbMti5YvoV7YO64Ddur8Vy5AQT70o1VljoKliO4s0+g9f78wWDqBAKdi8P8Sf3NhItoXztbPYddF1VthIeroLOhM2jJ1PoQrCx2s/utVE+uiHKuroAUb+GJeFCwuLYoElD+Mrx2cWkxb+eSPKTjjSG8nq0oCbYVOPnQ5uq+cjGKDcvCxHUx+6PUoqsLXm1I8M/n0rxbGcWUwKaoN9w+caROJvqA9y5Up+yCteMLOC5IZNDAwa20Ardr+SD66KsnKI285amIDuXh3ixJ+fdfA26sw4/bMuUJECfJri5sfTAVkcqWodNDlwyMB0vTEwoRUtI48/2NLGyOnBl17vQEZBwJHsvZDg8ZLCxys8f3FXPJ26tw3eZy2V1bYDda6/cM9l0JM+1Ztjbni1MigQ+YGtdgN+9vZ6Pba8hMImAipvu/MLmGjY3BTEcxQsXDUwpQdc4OGCwvyvH+rrAlJOekh3RCnjyRJLRkIKCKbhvTZT6Sd6uIo0xH1uagiwLj+0g3mfYPN+dJWk4pTajZIazDt8/neHxMxnPJ4EgqAk+taOGPetj814laqbETcmPLuSIBXX+w631fPr2evyFeMzp0Dps8pP2LOfiDuBNbNbGAvz7XfU8vGNy8V3OuvoQf3pfAzdFdLRigSYf/LA1RXvcmnLTxJIEqJQiY0q+35rGLrZLwtpaPxuaAkSmmH7rQnBbY4A9LWG8UC1vAJTMuByd4wCFjOnySleOR44lIOCNBwPA7lVR/mj3sjk995xSmFT4lWBHbYBfv6OupJ87UvHC+SxHBozRCUeNDg+uDfPxbVX4Sngpb1sZ5f6WIFF9LBTvzUGDrpSDPYW7oCQBugreupSlPW0j0bwbIOFTm2tomcaqxtr6ILcsD4+dVEC/6bK3LTtnG6lYjuRYb55vvBWn1/Dstg/J9hqdz7+rgYhfW9wZewrqghqf2lFNbJLx91QMZ20O9xtczBZWshTc0hTkAxui1IRKryP90S1V1PjGlaiTkLFcrCk2TSypxbar+M7RBG7xgSkIa3D36ghV02hwTUhnfX2A5VEfhchVhg3JCxdzDGbKHycolaIrafHdU0le6sl5qQIoWoI6v39XAzuWz2Q7r4VXza4uoPHAxtKd+sd78lxMmAUngcIPbG8McVvLzDb6uXVllLC/NOFOW4BSKRJ5l39tzSCLW7spxS1NQdbXBwhOcwa5szHIL6yOjkbIIGAkZ/NCW6qkhk+HpOHyzPkMXz+VKrgnFFU+eHBDjIdvKa278oIai91LcQgxzyhBQNdYVecv2aEPcHTQpisjR3uy5WGdmxsC1Ewxlp+KuoiPcFjzdt2dJtOeBVuOYl9buvCvgpl1FB/bXE19CeZ6dU2AW1eG8Z9JYRem/EOW5Km2LA/f0lC2wtmmI9nfmeXbR0ZGfW1+odhVH+LP7p/JuK9YALrg1J73bttrT51P5/0rSrdYrlScSlr0moXuV0Jz1Ed1QONi0ppxq5r9fs5hYUyzp5iWAFXB2fnYiYIlUZ7l8inJ7nVRgn4Ny5WF5zzVg1HoGqyt9rGl1sfbCQc0gSEVpwct2oYNti6b/R6/rlQc683z6Ikk51LeDdYUbK3y8+d7GqmPzMD7VKb15rIiFGE/bKgr3WIlDZe84Xr1enWB0ATHEyZ/+uoAdQdmHqV3PudSSgLutJ6EK6ErZfFif76wjOV1RxvrfHQnLFJ5B6XAr4spza9b8P6n8i7ragO8HR9zvyQd+PHZNFuaQrOaFCil6M/YfP9cmmc6Mt66l1I0h3U+vrWa+9aWPlbyDjxxS9mpXAvXB89qMcOdWDO2i20rkAJR6HUsF3rzkt7Z7NtcWCOeLtMSYNaWPHs65U0c9LEu6EzG5eHvXyqtgYVuF782tiYrYMix+fq5JJ+9r5HwLLphW8Lj59J89US8YK29Jbhty4P8zu6mGR/3clwJjqtgvmt9lzLgGofjgizobHRRsVwWXo0bqlzjPZ2WAFOWyxdPxq/cK0MAwVJbfZXvK4GRkbzRmeH+DdUlHnOMvedSPH40gWEX1jOlYHdLiC++dzn+hdaFlgFNKMIz3ftNU95nFOX52ooGUOB10cUJI5S2/ljc4GcKrinAvC050WuQSgKXD8/KNRAX3tuSlorvnUjPWICnB/I8eSbFsWEv+BVXsb3Gz2/trGVNbWBx+/vKjF9nbOlRAK7iF1aH+f2769i2PDpl2NbVjnfF7VUQ9WtTrqZcU4Bpw+XZs4Uoi4LrpTgDHttndIZc1hVnXcVzXRkGM/ZohO90SZku3zmR4vvtWaRPAxR1QY0H1sd4aFvNrKKnQ7qn53LhKjnv3sSoX8dz2Y2F5Pg0qPJrNIb1kts31d2d6sWfUoCuVPTkXB5ryxZizORoew/95nqqS/S8X05n3OIrh0d4siM7uhSUdhR7z6X55O31JR3rsRNJnjqbxlSFWDmpeOfqKL93T8O0fZRX4/JQLChE38xw9UYX2rxPqKNBjaBfG1OOgBFDMpjzooyuV/umFGDGcnnzYpas5UBA9+YeruI/bqthfW2ASAlxfJNRE9B477oYT7amQddBQFYqvvh2vCQB7mtN8f1TKbqzXqwhtmTPihC/c2sNyyeJTywVTVNXdC+2q7BmKMC+tI07zzYwoAlWRX3UBDQvCgboSjucT859YMh4plTQYM7l8dNpr8xaASHh4R3VBMoQPRIL6mxrCrG6KkgxmtQFOodtTvbnpuXq6BwxeOxUkkMDBm6hSZtr/fzKlmruWhUtS+JSVVAnqDMuJwIShf3WZsL+zpwXOzePZlAIwZb6gLeGX+jV+nMuZ4dMRrLXT4RXFaDlSDrjFod7jNGwcaFgU42PHSvC6GUYE+maYFW1j3ffsC4AAAcCSURBVJ9fE/bGk4WlOVMqnj2VvmbORc6WfOVokme78uQABER0eP/6Kj66vbRI66lojPk9a19sjyZoT5i0DZdW81ApRdpyebo9Q36Ogi9KYXtTkJUx3+gs1xHwZr/Ba13Z69aGqz6hRN7ljQt5cuPeVD8aD2+pJuqfXS7oeBojPt6zITbBGlgKvnUqSdaWU1rBx08m+HF7hoQtRwNj37c6zCd3VtFQxg2Zm6v8RD0TOGoFTyccjgxbWCVOxL53LEFvzp2Nq7dsbG4Ksbw2OBp+j4AzcYu97Rl6UzNfjiuFqwrwYtbhn88VF/E9fC48tLXai+csEyG/4ObGIHc0BEdn1Up40dJHLmWvOtF+40KGJ06l6EzZo0lR9ywL8smt1WxpDJavgUDIp7GlNkBjSB/trjI2HOk1eLtvejUPpVSc6M/zxUPD3jppiSsGc0E0qPNzN0XYVRcYtYJZqfhhV46vH0+RMWe2zJIyXB47PkJX4to9xKRSypgupwcMOhM2xZ22dRTr63xsagyVdeiiCcHyiM6DG2OFt9Bzjkodvn5seFILM5ix+eaxJIcHDaxCRPa6mI9f2VLNnrXRWc96J+O+VSE2VPlHx6po8Eafwb+8naD1GrVuHKl4uy/Hf3lxkLNZ6Vm/BeKTfM/aCHevDHvD/IIV7DccvnMywd8eHKZ7GiIqYjiSVzrSfO6Ffr5zLMHgNMaSk/ZTA1mHVzqzhbAjz/US0uDhrVVlG1eNpzqss3tNBA4Pj3bFEth3waA3bbG2NjgaMu9IxbeOp/jJhTxJW426XJojOq6jeLVzduOX922MTRrZfcfKCLuWBzgRN8hKQINhy+WptixZS/Ghm6u4c2WEhpgPX0FctqvoTlq80pHne6eT7O81wFV8YnOUp9pz5MZn5s0TjTE/H9tazfmkzUvdudECA5fSNt98O0Fn3ORdqyPsuSnKqprA6PNXSuEoyJkuF5MWpwcsXryY4+yQybEhkxUhjSniUEe5QoCuVFxI2bzQnRuXP6sI+DU+tGXmS2RTEdA11tYFuL8lxP4eY9QuJy3FK+1ZWm4JEC4I8LlzKZ44naTfdMYS0wV0ZR0ePZsqKYx8AoWf3bYqQniSKOm6iI8Pbqri7QGLA/1GIVdT0Gu4PNWe4dSIxYaGDLURnZAukEDeVgylbM4OWZxO2KAUD62J8Os7avlJZ94T4ALg7pYIn9nlkjNdDvYX779gIO/w1PksR/pM9rbnaIh5pUNiuiDluriuwrQkIzmH7rTD6YSFVwZckZRiylD8IlcIMJl3ONGX52LG8VYplCKgCW6rD7Kuvrxjq/HUBX38ys017O8eEyAaPHIqwYe31xD2a5zqy/KNI3HakhauGmc9CkLozc8wNMQ7CKC8GMWr8I5VMX51h0vKGuFUwi5UHhCkXMXhIZPDgyZC9+qmKDwLiOvN7DUFe1YE+aP7GlhW5eOyRYjptVDMzV4rYb/Ge9ZGkRL+6Vic13py3lBDE5gKzqVdziWzIASa5kXBZ105bl1YTLwOBbc1BqibRpzoFQJsT1r8oLjPh+11vxEffGh9bFoZUjMlEtC4c2WYhiAMj6tncrjP4NSAwV0rI+xtS/Nmv0HOlkycCc0iSbeIBPSpgzdqQjq/eLOXrPOtkwne7De8iJhirGBBeJZkbMkSCGoaH90Q4dd2VXPn6iidcRNlFxf+lef8nGbzlVLeMqhWWOgvkxWtCft4/8YYsbDGk2cCvNaVpTVVeMkEFP1uEuWJD8YMQDFgQRfc2xzijhVhHlwfYU11iZURpFIITbCmNkBLsdqShCpd8N6NV+aUlhOfJripJsBv7qqjq1DKDQBXkTZcXAXVYT8f2BDDGB07jQ0RZp2rUUiqvlZyenOVn1/eVk1ztc4LHVnahy26UjaXcg7JQsK5EBD1C1aGdHY0htjUFObhzdHRYNuoX+cjN8e87wvAFexaHiJ8jXP7NMHN9QE+vrXK805IaArqLJtGtavpUBXUeWBdjM31AX66IswbPTnaExZdKYdLhuu9WFC47YqgLlgd8tMS0Wmp9rOiLsD9K0LcvSpCTViflrUW+Xx+9MlJpUibksHsWIKQUgohBGvrgjMfX00TVyqGsg5pa2JXGvFrLIv5Gco45Oy59aGtqQ1OOy0gkXNoGzY4N2LTkbYZsWQxwJjqgMa6Kh93rgizqTE04d6ZjqQnZU0wXtUBndqIPlrWbjJcqUgZLsP5sdmlXxM0RHzEZhqSNcW5hrMOpwfynEs4dGRsTKmQ0kuxRSjCumB9NMDaap01DQFuqgniK7GXnCDACrNDKkXRqM31yzofqML1lfPaKiVKy4gmBEtQd6MIIcavS5SFyn7BFeaVigArzCsVAVaYVyoCrDCvVARYYV6pCLDCvFIRYIV55f8DwT+3yW2iGGoAAAAASUVORK5CYII=;" parent="1" vertex="1">
          <mxGeometry x="81" y="81" width="60" height="52.13" as="geometry" />
        </mxCell>
        <mxCell id="w0dWxcjNK54hNHP3luBS-55" style="edgeStyle=none;rounded=0;orthogonalLoop=1;jettySize=auto;html=1;strokeColor=#1A1A1A;strokeWidth=1;startArrow=none;startFill=0;endArrow=none;endFill=0;entryX=0.728;entryY=0.98;entryDx=0;entryDy=0;entryPerimeter=0;" parent="1" target="w0dWxcjNK54hNHP3luBS-4" edge="1">
          <mxGeometry relative="1" as="geometry">
            <mxPoint x="270" y="260" as="sourcePoint" />
            <mxPoint x="250" y="180" as="targetPoint" />
          </mxGeometry>
        </mxCell>
        <mxCell id="w0dWxcjNK54hNHP3luBS-57" style="edgeStyle=orthogonalEdgeStyle;rounded=0;orthogonalLoop=1;jettySize=auto;html=1;exitX=0;exitY=0.5;exitDx=0;exitDy=0;entryX=0.408;entryY=0.8;entryDx=0;entryDy=0;entryPerimeter=0;strokeColor=#FFB570;strokeWidth=2;startArrow=none;startFill=0;endArrow=openThin;endFill=0;" parent="1" source="w0dWxcjNK54hNHP3luBS-9" target="w0dWxcjNK54hNHP3luBS-4" edge="1">
          <mxGeometry relative="1" as="geometry">
            <Array as="points">
              <mxPoint x="240" y="280" />
            </Array>
          </mxGeometry>
        </mxCell>
        <mxCell id="w0dWxcjNK54hNHP3luBS-9" value="" style="shape=image;verticalLabelPosition=bottom;labelBackgroundColor=default;verticalAlign=top;aspect=fixed;imageAspect=0;image=data:image/png,iVBORw0KGgoAAAANSUhEUgAAAEkAAABHCAYAAABLeWqsAAAUcUlEQVR4nM2cWY8d13HHf2fp7rvOPhySw12kFkqW6SVxbCA24qckCJCXfIx8gnyaJH7MWxAgCJAF2ZDEgiw5kmlZCyWT4pBDcjjr3Xo5lYfT3bfvNnPvMEFcANVzu/vUqVOnqk6df52W+uBhLAKgOJvEXxQQWthsaZbqGqXgsOfYOXBkDpSaj5+4jI8//oif/MVf8r3vfY8f/uhH3L5+ibWmZrmmyBzsdRydWHACOufpBJIMkkzIZLacALUAlmqatYYmCkCreQY6Svbv7g+Y1s/UQeUvagXLdcV3rgXcuaAwGh7uZfzjpzFxKmilmEcWEeHgaIvVe3/C8+YGP92pc6QT3r0csFQz9FPhl09THu1nJBlY49tlDnqJ0IuFJJvBO78u1xTX1gx3L1murhiUYS7ZqmQ/+DpBZE5DEt+50bDZ1lxdM1xb88I/P3H8/FFCLxGMVuWsn0XaLNO49tscJxmf7WdEtYzrqxYRiFP47HnKxzsp/UQIjWeaiTBIYZAMlVTtThgqqV1THPQczUix1dYYA2qu0Q7JWj2/ZquWZA0Y7S1GAVpDYBWZ+L8nlaRgqs0KLo1RIljlJ0BV3Ko7EA56jn4CoRltr5R3+1mUOa/olx1h98iRZFAT5rOICi3koqpyVVPGW8SixWQQxDlghjmr4XuLkh+bkDohznxcOw9Zb3zztRaVK6cIzNMUNXYdeTCjG8mfzYr3ajrH+Sdj8Vg9QlYWmCGZeLXwflW+IPnPyVdP76eId1LyndaXmrizGJ3D1wCL5DO5QDcifmUab+cHKciMWZ85qOKByORbMry9qFIKxSOLmMIk2bL3PDiJDIdYMFbFs/xdyYOPkqGDCLmylXdeJUObUEr5NiIj/Knw9XqYVK5UnhfyASMyFvIx0aeXSUrTPp/f2VIZIhWhJwWtCiCFW1UHIuDc0KuqVlYYuVR+j/Cv3phhMeMWOtZkwp0LaacZ56KkF2k/LkYx/xqwGsI8UZsw7tyCJuJS5Z5U/o33ed4xDrubNT3zkR1pNiu4Vu4XVlu1FK2hZhWtSNFPhcxNinNqTDr14bBfmUO+qfdUKfm5SJcCVISp3hv5LdOfFUldM1JYPfmul3l03Rp3lzLIjt0vrzP6Hpf3tDGcl+y4sNXrrPvjfl5k3EZR5lzT+J7Gb9YqJHlcmeWKs/qqTtR5VsYq6VdoO0KCIs+bX4HHbEX8f5J1ZyR5Vaq+6vJgXI2NIuDyZ7DYguvE/6su94UJiAhOFt9WiIBT4JCZ4XYesot0XDV7N2HCMvLOQlRtM74AIqUCF1VSJiDOb3TdKySU1swJkMFQATrfrRc7/cL/UweJ82AYjKMLs5cwwedYiVGkblQZRV/Fv0VJqwKVWBQgGZJdb+lzQSVrTU09UJhSUcqbddW050Q7y9WtEsDBLwTtmma9pRkkQmAXG6ZzXtbVpk9P9MIIhSf7+29F+Z/jm5EqDZ95S1LUQ7i+ZqmHXlFbbcX3b4S8uSXekoRKfjIOiY2L6hUbGMWVFcNW209cLVDc2w64vGRIXWG5p8s3cU8J9UBxsW2I7Pm0pJ4dp+dyVaOhbhVhPrtxKhwNhDQbBu6FhVE+KW2GilqgcAKdgceCZJpu55VVQWgV9SC3pgXxW3seYBzy3EENkR6lFIH225PzjkYBQY54lveKQZ3TVYY8qr0sRvbfHwwWaiB5p80AbqxbLrYNWsPTQ8cvniYVt1iMBK/gzZbm6qphq20YpMInuwlPjx2pE8yCE1rs2RshbLUNtzctkT0Hxv3nPz0586ViXRoGbsVWS/MHb9dphprAwC93E37yXod+Iug5cfNqJMkcNALFu9sBP75T40LL0BkI//TZgPcexr4QYOdPL1TOU2u40NJ891rEpWXjiwkLTqLtxmd3W1WSAEYLvUSRZlLeTxx0Y1dWSxaZ9CIFEIR+6jFp8IlpPxW6sdBLHKmbF2jOlSTeqruJEKfzyzNOdl7XUPidv+QdqzFrUXgLKyolE0o6DeMG0GCUXykLmTxPRnguYgRlexabtHGyqip88ff4gCq/C0FV5ZG/CkpJHsTz+1V+0/gPV+ky1k0bS8lzllwzxqAqbV+F7DgqOHIduz8OlYy/UmLfos6AIievZdtpj3MkdCKzOAMGEBla/6uQXZRB2XHx95h81QA/QnMAa0x7Rc7ge5asizWZSnYRJoWwSqYLIPhgq1gMgynRAyZ5FvcmN9Tzyevytm7BtlWy2TjMeYYVFLnHOJQqQg5nyPD1cX7jcaNCfpfvs+zRIoOQieAQMibbzZRbUZ448VDJ+W0qL05WtvPTSHJx85EXM1MNCVWXkKIGPl4ymfZ37k8lnjQGaZQbX5mcmFPlFkpsSnIo9bx6ymPSPK19QBYEpQp8ppghleM+uSXJgu6WY0YypqR8aCVvkTkDW9FexE+mvKIlZYs0LgZQgFjVKkrV3WQa0n0aX29FWT6oqfdl2oEtmfxZMd7S3c6BalbpfIF7UrxhkOQcgTtvVxYYZPRZ+fwsJuO3KgvCq9C5MG6nGFoVlYEUuPc5VpMhRDtEuQt3di6/ippSThNGVooyM/X8vKijyPmiZIuYMhzuiAgVKko7ClUG2dHgXQxUieSWNA62VWkUyCt4T7NQwe/tskyRifF1Zy0o4/wWxoxNifOJXJaN6Aw9ZVTzUF4IGF96pjtUGbjHFFQOJreEaQe8hm8xwX8I9qtxb8tjksIphw4GRGaADfsQCLGJ6EsDZ3ILyi84v/67BFSqSK0mRkicj3mLQuU2m4hos82yil9nMnZoQnw+k+W+JhMbrdm8BV8az/IAW6oyV1wG6KjP2sZTtlc+Y7X9hMQEPImv81XvLh3XRpQ/jKbyLYFygqSQJNDV8JyUnTilnipagfZWNeemzh4OpkWPGYrKB+AB+ow4c2UciVPHUd/RiV1+sPS0GDC+Kgmp+NWoGzvSfFky2iBWY1tdVpa+5O7193jjwntsNJ4wkBqPuneoHZzw65M3OEw2SSTMcziDCBhSlHMcifApff5+D46x3G7WWA8jamZOJb19MZzrxXwspZI224b1hgexrIa1puGti4EH3dT8p28LvpkIjUBxbdXSjjSJwJGLaaw85nrwKRdWPub1rQ/YqO9gdYIh5VrjU+q6y2rwjCf9G/SzJpkYemmLo2SdvqvhMAyAnczxL3snHLtj9pKQN1vrbNfWaBl95pFq9dcfn8wd9qsRpREqbq4FbLUNWsHT44z7T2NStzjuU8ShQMNG07DRtqRWcf9oj08O/5mE99lsfsGl5g6h7iOi8WEeYhexF1/kKFkjcSGZWDrJMg+7r7PTu8VhskbiIjLRBCrm7vID3mzH3G5ucLt5lZuNVdq2htVmpswqc+dPs1Tlv8Uq9aqUOOFx3/EfL2M+PPyapehvuFT/T9ajx0Q6zvuYvRo70fSzJo+6t/n8+Js87t7iINlkkNVBOV5v/4yt2j6rQYtr9QvcW77Jdu06bdvKwbVJsi9OZhypn0JVS9IaGoEmys9RD1LhZOBG3lmEJOd5mDk+Oo75171jHvX2uaMcW3WFVRmajIzqwe3Colx+XAO0ymjZA+60f86SfclGtOMtKl4nJeBi/SENe0TfBTwdfMav+zsEOsSqG7RMONXt7J/97d5CIxE8JLrRMvz4dp17lyOsVnywM+CvPjymv8BnEyOsHTSaIC3NYRSzr59wvfket1q/YC14hlEpbgLqLMTSYzYlWBVzofaYVnDIjdZ9kixC0LTsIX1X5zBZRpGyOzgiYoWGqtGqX5sqm/2vh/0K89ORiLJaomF7yXJ3K2SQCs7A0+OUnz4c0EkctvKlwLTMaKIf8chBYxVMalBLCc16j6Vgj9XgOU17hFLCIKujlcOoJG9mJhTm3V4hGIxOaOsD2sFBvjn2Chy4OjXTYeBCdrorPO+nxG6PyNS5EG1UpMyV1E1kQvjxVG+oJN/QKP8BTJJJuedKMugkQicWrBaUVlPnXUb6kdI6VSg47QuTFqiJJZWIRCIOkw2OkjVexlvUdJf1aIelYJ9AD3JFjU9pcfVuqJWAGubzRqcYldEfXKSTNUCe8TyBvSRhLVzHjBUOrD0z/Ry+PSwpKawBrZUv9CkfHQIDgfVVj/EUQE3FmodlEdMQgiaomsMYh4jlMN5gp3uTVAKe9G/xrH+Fuj7hjaX3ud3+b9ajXYYoxjT/9m5YvONEMcgaZGLpZS1eDK6gxNIMvsDxhJdJSCe9R8sGaBkWEEY3uKdVSxi6nJbKjr1CLsd9tBo7SzReFBhbnJQCVQNqoK3DqhiF42WyRfeozXG6yrP+NkfJOoYUo1PWomesBC8YfscxGatGOgH6WZMHJ2/zYrBNL2uTiuVi9BXr4SOMbrMXH7Hb71NrWMLKLFtX0Vi5dZ/iI9W9modSR5d8x/CwVebGgrfMuBYKtIKqgw5Bax+GBc3LwRa9rEXsIkQ0ke4TuxovBxd41t9mM/qadrB/ioKGnaUuZLd/lQ/3f8iDk29gVcobS++zEu6hleIoadNLajRVwlYkWE3pyJNQyaxkRypQj1SPAxaBcgiOTRV3hmUpAyYCFeGP3itF4kJSsTnPAJHiIyFBk9JJl3gxuMRBvMlysIc7ZctadJVJQD9rkYklE4tVMevhUy7XvwQ14OVgiW7aY3fQJy72paW7IdMVM+VeYU0qx3WkojmhgkwWm9sRT1ZD2yu0rfITaAEom8etfGUSKfKhYdHTV48zelmTg/gCR+lqznv69yx5a0AwOmE1fMbVxuf0swagWAmf0woOEDJit0cmj+i6HVJZHVk5x6CS04JSAZV4vMgVBcNSgZIjAZTflUznl/8udutK/Adlflte6XG6SWvliF2do3SVk3QZh5757lAGCFTMZu0xr7sPiEyXftZgJXyWr34ZDfMSZx+A+yWKm0BE4XBjUMm0oDH8XUAlitxqRhIFv4t3zpd+RqGS6fyKeVZGgTk7S/e5lzDIanTTNt20jRODUWefhhDAqpjL9QeshM+JXUTNdHGiUVisHtC0OwTqPlb/CKWWKZW0yH6r0OfUQmIe3AtQ60y+FV6LQoaCQkTjxODQE5nSdFIICqNT2voAJ0WWrhA0ioTQHNPWu+XqWtBC1ZJhTGLM3XyQKWJSJvMrSUthT8ytqOJ9TYZlnjM1lVwvd0+tXJnQpi6kkzVIXQsdtHDokRi3cCHAB2hfoKzG4QJ8K0pK42qathWh4OV8fJIy6M/uH7xyAh0TmgFaZVV2c5AqlWPytgMX8TLe4iS5QpzeIV5qUQV5z3XYvahjjUezTKoY9+hgZykpc0KWeqB/NqJTbaYIdEzNdIhMD6XylW2RuJGPJZGQbrbE8/5FdnrXOUnfwGVvk7i2x6ymZtxzMK5aUrkwFslmubpVtDB7tKB8BSSNBZepclE4vZki1APqtkOke4yU6c/s0JNCiF3Ei8Flvuq8xdP+FQ6SLSJ1hQv2NZDaCE8bZ0PJTk8AhubuEFLnyk8RCneLna9I+FL4GRvcnJdJBN1XNGIhbMwXlBw+aAse0HcLRH2NY+BqPO1f4xcH3+f+0W/xMl5Fq5BbzYCtmqNmHEoNlwM7ArUWJZniOna/OJekURWPLRpQYttKFUeYK/yKNyu/i+ZZDMnAu506IxUoAu1JssxRvE4vaxLqQSVVrbYu1Ddcx5wYXgwu8enxt/j0+J5HLZ2hZRXL1nC5Zgi1Gsnh7a21AJ8P+xGI5Dld9USIguFHff5c4/aSZTnSBFphtWK5prm5GtBJjP+/RIAPwqUpSemeI/wVKCsEed4g4stmUzcaeZ7knKKTLrHbv8KT3g22Gw+wKqlk3pX8TfysKQSH4jhd5XH3Nl+d3OXF4DIJBqOEtlVcrBmu1AMiPXqI2f7x3faIHLM8vGpYGlita15bD2mEGqPh1mrAH73ZZJB5UI5xPhWoZJy/A07CjK91wlOX0RFXrnJqlEV+dfSyJk/6N/j8+Ju07CEr4YscjBsmqrGLiLMGmRgCHYMSHnVf58HJO+wOrhG7CFRMpOFCZLjRCLhUswRajayy9k9/sDZFJWeTUdAINZH1Wn/3UsTNtSDfGC6QGeI3xrtxxj/snfBvL7t0um5oE1O+LtLakUrI3uAynx7fYy3cxaiMdrCXL+uK1AW8jC/yvL9NP2vQsgdEps8nR9/my85djpNljEpIRViyhtcaAW+2Q9ZCO2HFdrM5X746jarxrBZoorMRvJm0KZYOjv3UcZg69hIP+c9St8IRu4in/eu8v/97ZBhea33EWvgMRcbT/m0+PvwdHnZeZ5DVWQ732Iges9u7Si9t5VPgqBnFjWbAO8s1bjbCqdm7Nef5xmGq0KeMaA4ywGvNgG+vROwnKT8/HNDLXHlIbPzMeL6mEruIr7uvUTcd6qZD2+5TMz12ejf5/PhddvtXAThK1jmK1zlOl3EoFClaweWa5RtLNd5ohayHZnq15PzD+t+ntdBwtx1xmDg6qfBFJ6ab+VRj/MC6yo+L+A1vg8fdW2xEj7lU/4qa+RqFUDcnrIbPSVzIYbJB7KLybEGkhfXQ8q2VGveWozxgT/eE3yglRUazXQ/41orQy4RUhEfdhJPUkeXHebzFemxdKdDicAqO0xWe9G7yqHMHq2Ii0+Fm8z6xizhK1/jV0XfopE1AqGnYjDTvLNX4wVqD11sRy8HsjyN/o5SkgLbV3G6G6DyZ+pnu8UUnYT/JSAVsNRPNWykEEcOzwRU+Ovw+h8k6VsVsRDvUzTHH6SonSYsvO29iVINLkeUbyyG/u97gOys1lgNDcErYUfIqJy7/D6g4DDrIhIe9lA8Pe7y33+P+0YAXcUac41WK4XcjUFiYr+ZaHbNkX3Cx/iWXal/QDvY5Ttb55OgP2Qi2eWepyXdXQ95Zjlgyxv//DE5ZkX+jLAm8sFqgZuBa3dIwDTZDw9V6wK9OBvy6k3CQOmIn5Wa72Fx75NSSOIvIFrFbpptsc6Wxw5XGCRc2Im7W69xpNbhStyxZj0WddU7pfwAeHWRootJyDAAAAABJRU5ErkJggg==;" parent="1" vertex="1">
          <mxGeometry x="251.58999999999997" y="255" width="51.41" height="50" as="geometry" />
        </mxCell>
        <mxCell id="w0dWxcjNK54hNHP3luBS-59" style="edgeStyle=none;rounded=0;orthogonalLoop=1;jettySize=auto;html=1;entryX=0.208;entryY=0.6;entryDx=0;entryDy=0;entryPerimeter=0;strokeColor=#1A1A1A;strokeWidth=1;startArrow=none;startFill=0;endArrow=none;endFill=0;" parent="1" edge="1">
          <mxGeometry relative="1" as="geometry">
            <mxPoint x="155.21401041666672" y="268" as="sourcePoint" />
            <mxPoint x="224.99" y="197.0000000000001" as="targetPoint" />
          </mxGeometry>
        </mxCell>
        <mxCell id="w0dWxcjNK54hNHP3luBS-10" value="" style="aspect=fixed;html=1;points=[];align=center;image;fontSize=12;image=img/lib/azure2/identity/Groups.svg;" parent="1" vertex="1">
          <mxGeometry x="105.29" y="261" width="60.71" height="50" as="geometry" />
        </mxCell>
        <mxCell id="w0dWxcjNK54hNHP3luBS-11" value="&lt;span style=&quot;font-size: 10px;&quot;&gt;Azure AD Groups&lt;br&gt;&lt;/span&gt;" style="text;html=1;resizable=0;autosize=1;align=center;verticalAlign=middle;points=[];fillColor=none;strokeColor=none;rounded=0;" parent="1" vertex="1">
          <mxGeometry x="90.41" y="315" width="100" height="30" as="geometry" />
        </mxCell>
        <mxCell id="w0dWxcjNK54hNHP3luBS-12" value="" style="aspect=fixed;html=1;points=[];align=center;image;fontSize=12;image=img/lib/azure2/security/Conditional_Access.svg;" parent="1" vertex="1">
          <mxGeometry x="100.41" y="160" width="41.18" height="50" as="geometry" />
        </mxCell>
        <mxCell id="w0dWxcjNK54hNHP3luBS-13" value="&lt;span style=&quot;font-size: 10px;&quot;&gt;Conditional&amp;nbsp;&lt;br&gt;&lt;/span&gt;Access" style="text;html=1;resizable=0;autosize=1;align=center;verticalAlign=middle;points=[];fillColor=none;strokeColor=none;rounded=0;" parent="1" vertex="1">
          <mxGeometry x="81" y="201" width="80" height="40" as="geometry" />
        </mxCell>
        <mxCell id="w0dWxcjNK54hNHP3luBS-14" value="&lt;span style=&quot;font-size: 10px;&quot;&gt;Azure AD with SCIM&lt;/span&gt;" style="text;html=1;resizable=0;autosize=1;align=center;verticalAlign=middle;points=[];fillColor=none;strokeColor=none;rounded=0;" parent="1" vertex="1">
          <mxGeometry x="193" y="136" width="110" height="30" as="geometry" />
        </mxCell>
        <mxCell id="w0dWxcjNK54hNHP3luBS-37" style="edgeStyle=orthogonalEdgeStyle;rounded=0;orthogonalLoop=1;jettySize=auto;html=1;exitX=0.5;exitY=0;exitDx=0;exitDy=0;strokeColor=#FFB570;strokeWidth=2;endArrow=openThin;endFill=0;" parent="1" source="w0dWxcjNK54hNHP3luBS-47" edge="1">
          <mxGeometry relative="1" as="geometry">
            <mxPoint x="465.5" y="460" as="sourcePoint" />
            <mxPoint x="640" y="290" as="targetPoint" />
            <Array as="points">
              <mxPoint x="520" y="446" />
              <mxPoint x="520" y="275" />
            </Array>
          </mxGeometry>
        </mxCell>
        <mxCell id="w0dWxcjNK54hNHP3luBS-44" style="edgeStyle=none;rounded=0;orthogonalLoop=1;jettySize=auto;html=1;strokeColor=#FFB570;startArrow=none;startFill=0;endArrow=openThin;endFill=0;strokeWidth=2;" parent="1" source="w0dWxcjNK54hNHP3luBS-41" target="w0dWxcjNK54hNHP3luBS-42" edge="1">
          <mxGeometry relative="1" as="geometry" />
        </mxCell>
        <mxCell id="w0dWxcjNK54hNHP3luBS-41" value="" style="sketch=0;outlineConnect=0;fontColor=#232F3E;gradientColor=none;fillColor=#BF0816;strokeColor=none;dashed=0;verticalLabelPosition=bottom;verticalAlign=top;align=center;html=1;fontSize=12;fontStyle=0;aspect=fixed;pointerEvents=1;shape=mxgraph.aws4.sts;" parent="1" vertex="1">
          <mxGeometry x="696.6" y="160" width="46.8" height="30" as="geometry" />
        </mxCell>
        <mxCell id="w0dWxcjNK54hNHP3luBS-42" value="" style="sketch=0;outlineConnect=0;fontColor=#232F3E;gradientColor=none;fillColor=#BF0816;strokeColor=none;dashed=0;verticalLabelPosition=bottom;verticalAlign=top;align=center;html=1;fontSize=12;fontStyle=0;aspect=fixed;pointerEvents=1;shape=mxgraph.aws4.role;" parent="1" vertex="1">
          <mxGeometry x="796.96" y="161" width="53.18" height="30" as="geometry" />
        </mxCell>
        <mxCell id="w0dWxcjNK54hNHP3luBS-45" value="&lt;span style=&quot;font-size: 10px;&quot;&gt;AWS IAM Identity Center&lt;/span&gt;" style="text;html=1;resizable=0;autosize=1;align=center;verticalAlign=middle;points=[];fillColor=none;strokeColor=none;rounded=0;" parent="1" vertex="1">
          <mxGeometry x="603" y="295" width="130" height="30" as="geometry" />
        </mxCell>
        <mxCell id="w0dWxcjNK54hNHP3luBS-46" value="" style="whiteSpace=wrap;html=1;fillColor=none;dashed=1;" parent="1" vertex="1">
          <mxGeometry x="80" y="440" width="880" height="100" as="geometry" />
        </mxCell>
        <mxCell id="w0dWxcjNK54hNHP3luBS-47" value="" style="strokeColor=#dddddd;shadow=1;strokeWidth=1;rounded=1;absoluteArcSize=1;arcSize=2;labelPosition=center;verticalLabelPosition=middle;align=center;verticalAlign=bottom;spacingLeft=0;fontColor=#999999;fontSize=12;whiteSpace=wrap;spacingBottom=2;" parent="1" vertex="1">
          <mxGeometry x="485" y="447.5" width="70" height="62.5" as="geometry" />
        </mxCell>
        <mxCell id="w0dWxcjNK54hNHP3luBS-48" value="" style="sketch=0;dashed=0;connectable=0;html=1;fillColor=#757575;strokeColor=none;shape=mxgraph.gcp2.laptop;part=1;" parent="w0dWxcjNK54hNHP3luBS-47" vertex="1">
          <mxGeometry x="0.5" width="50" height="33" relative="1" as="geometry">
            <mxPoint x="-25" y="18.5" as="offset" />
          </mxGeometry>
        </mxCell>
        <mxCell id="w0dWxcjNK54hNHP3luBS-49" value="&lt;span style=&quot;font-size: 10px;&quot;&gt;User via browser&lt;/span&gt;" style="text;html=1;resizable=0;autosize=1;align=center;verticalAlign=middle;points=[];fillColor=default;strokeColor=none;rounded=0;" parent="1" vertex="1">
          <mxGeometry x="466" y="510" width="100" height="30" as="geometry" />
        </mxCell>
        <mxCell id="w0dWxcjNK54hNHP3luBS-50" value="Identity Provider (IDP)" style="text;strokeColor=none;align=center;fillColor=none;html=1;verticalAlign=middle;whiteSpace=wrap;rounded=0;" parent="1" vertex="1">
          <mxGeometry x="166" y="40" width="122" height="30" as="geometry" />
        </mxCell>
        <mxCell id="w0dWxcjNK54hNHP3luBS-51" value="AWS ( Service Provider" style="text;strokeColor=none;align=center;fillColor=none;html=1;verticalAlign=middle;whiteSpace=wrap;rounded=0;" parent="1" vertex="1">
          <mxGeometry x="640" y="50" width="270" height="30" as="geometry" />
        </mxCell>
        <mxCell id="w0dWxcjNK54hNHP3luBS-52" value="" style="sketch=0;outlineConnect=0;fontColor=#232F3E;gradientColor=none;fillColor=#BF0816;strokeColor=none;dashed=0;verticalLabelPosition=bottom;verticalAlign=top;align=center;html=1;fontSize=12;fontStyle=0;aspect=fixed;pointerEvents=1;shape=mxgraph.aws4.permissions;" parent="1" vertex="1">
          <mxGeometry x="805" y="196" width="47.69" height="60" as="geometry" />
        </mxCell>
        <mxCell id="w0dWxcjNK54hNHP3luBS-53" value="&lt;span style=&quot;font-size: 10px;&quot;&gt;Permission Sets&lt;/span&gt;" style="text;html=1;resizable=0;autosize=1;align=center;verticalAlign=middle;points=[];fillColor=none;strokeColor=none;rounded=0;" parent="1" vertex="1">
          <mxGeometry x="780.84" y="253" width="100" height="30" as="geometry" />
        </mxCell>
        <mxCell id="w0dWxcjNK54hNHP3luBS-56" style="edgeStyle=none;rounded=0;orthogonalLoop=1;jettySize=auto;html=1;exitX=0;exitY=0.5;exitDx=0;exitDy=0;exitPerimeter=0;strokeColor=#FFB570;strokeWidth=2;endArrow=openThin;endFill=0;" parent="1" source="P2rhJr64TXhiE6YPwsJS-10" target="w0dWxcjNK54hNHP3luBS-9" edge="1">
          <mxGeometry relative="1" as="geometry">
            <mxPoint x="640" y="265" as="sourcePoint" />
            <mxPoint x="380" y="265" as="targetPoint" />
          </mxGeometry>
        </mxCell>
        <mxCell id="w0dWxcjNK54hNHP3luBS-60" value="1" style="ellipse;whiteSpace=wrap;html=1;fillColor=#E6E6E6;" parent="1" vertex="1">
          <mxGeometry x="504" y="370" width="30.41" height="30" as="geometry" />
        </mxCell>
        <mxCell id="w0dWxcjNK54hNHP3luBS-61" value="2" style="ellipse;whiteSpace=wrap;html=1;fillColor=#E6E6E6;" parent="1" vertex="1">
          <mxGeometry x="466" y="265" width="30.41" height="30" as="geometry" />
        </mxCell>
        <mxCell id="w0dWxcjNK54hNHP3luBS-62" value="3" style="ellipse;whiteSpace=wrap;html=1;fillColor=#E6E6E6;" parent="1" vertex="1">
          <mxGeometry x="222.29000000000002" y="226" width="30.41" height="30" as="geometry" />
        </mxCell>
        <mxCell id="w0dWxcjNK54hNHP3luBS-63" value="4" style="ellipse;whiteSpace=wrap;html=1;fillColor=#E6E6E6;" parent="1" vertex="1">
          <mxGeometry x="340" y="175" width="30.41" height="30" as="geometry" />
        </mxCell>
        <mxCell id="w0dWxcjNK54hNHP3luBS-64" value="&lt;span style=&quot;font-size: 10px;&quot;&gt;AWS STS&lt;/span&gt;" style="text;html=1;resizable=0;autosize=1;align=center;verticalAlign=middle;points=[];fillColor=none;strokeColor=none;rounded=0;" parent="1" vertex="1">
          <mxGeometry x="685" y="184" width="70" height="30" as="geometry" />
        </mxCell>
        <mxCell id="w0dWxcjNK54hNHP3luBS-65" value="5" style="ellipse;whiteSpace=wrap;html=1;fillColor=#E6E6E6;" parent="1" vertex="1">
          <mxGeometry x="702.59" y="126" width="30.41" height="30" as="geometry" />
        </mxCell>
        <mxCell id="w0dWxcjNK54hNHP3luBS-67" value="" style="outlineConnect=0;dashed=0;verticalLabelPosition=bottom;verticalAlign=top;align=center;html=1;shape=mxgraph.aws3.user;fillColor=#D2D3D3;gradientColor=none;strokeColor=#1A1A1A;" parent="1" vertex="1">
          <mxGeometry x="430" y="447.5" width="45" height="63" as="geometry" />
        </mxCell>
        <mxCell id="w0dWxcjNK54hNHP3luBS-69" value="7" style="ellipse;whiteSpace=wrap;html=1;fillColor=#E6E6E6;" parent="1" vertex="1">
          <mxGeometry x="626.59" y="388" width="30.41" height="30" as="geometry" />
        </mxCell>
        <mxCell id="w0dWxcjNK54hNHP3luBS-71" value="&lt;div&gt;&lt;br&gt;&lt;/div&gt;&lt;ol&gt;&lt;li style=&quot;box-sizing: border-box;&quot;&gt;User opens a browser and navigates to AWS IAM Identity Center ( https://d-9067502bc0.awsapps.com/start)&lt;/li&gt;&lt;li style=&quot;box-sizing: border-box;&quot;&gt;&lt;span style=&quot;&quot;&gt;&amp;nbsp;&lt;/span&gt;AWS IAM Identity Center redirects to Azure Enterprise Apps endpoint&amp;nbsp;&lt;/li&gt;&lt;li style=&quot;box-sizing: border-box;&quot;&gt;User Authentication with password and MFA&amp;nbsp;&lt;/li&gt;&lt;li style=&quot;box-sizing: border-box;&quot;&gt;Browser redirects back to AWS IAM Identity Center URL with SAML assertions and SSO validations the assertion.&amp;nbsp;&lt;/li&gt;&lt;li style=&quot;box-sizing: border-box;&quot;&gt;User selects a permission set, presenting the SAML assertion. The AWS federation endpoint verifies the SAML assertion.&amp;nbsp;&lt;/li&gt;&lt;li style=&quot;box-sizing: border-box;&quot;&gt;The user will choose which of their authorized Permission Set they currently want to operate in&lt;/li&gt;&lt;li style=&quot;box-sizing: border-box;&quot;&gt;User is redirected to AWS Management Console with permissions of the assumed role.&lt;/li&gt;&lt;/ol&gt;" style="text;strokeColor=none;align=left;fillColor=none;html=1;verticalAlign=middle;whiteSpace=wrap;rounded=0;" parent="1" vertex="1">
          <mxGeometry x="263" y="550" width="697" height="120" as="geometry" />
        </mxCell>
        <mxCell id="w0dWxcjNK54hNHP3luBS-72" value="6" style="ellipse;whiteSpace=wrap;html=1;fillColor=#E6E6E6;" parent="1" vertex="1">
          <mxGeometry x="780.84" y="133.13" width="30.41" height="30" as="geometry" />
        </mxCell>
      </root>
    </mxGraphModel>
  </diagram>
  <diagram id="DNyrMijNLbRJFRWZAMUZ" name="Page-2">
    <mxGraphModel dx="1194" dy="-298" grid="1" gridSize="10" guides="1" tooltips="1" connect="1" arrows="1" fold="1" page="1" pageScale="1" pageWidth="1100" pageHeight="850" math="0" shadow="0">
      <root>
        <mxCell id="0" />
        <mxCell id="1" parent="0" />
        <mxCell id="Q6KyBkPjPvalgUi6Rkui-1" value="" style="whiteSpace=wrap;html=1;rounded=0;shadow=0;glass=0;sketch=0;strokeWidth=2;fontSize=11;fillColor=none;gradientColor=default;strokeColor=#E6E6E6;" parent="1" vertex="1">
          <mxGeometry x="40" y="1600" width="803" height="83" as="geometry" />
        </mxCell>
        <mxCell id="Q6KyBkPjPvalgUi6Rkui-2" value="" style="whiteSpace=wrap;html=1;fillColor=none;" parent="1" vertex="1">
          <mxGeometry x="58" y="939" width="360" height="280" as="geometry" />
        </mxCell>
        <mxCell id="Q6KyBkPjPvalgUi6Rkui-3" style="edgeStyle=orthogonalEdgeStyle;rounded=0;orthogonalLoop=1;jettySize=auto;html=1;endArrow=none;endFill=0;" parent="1" source="Q6KyBkPjPvalgUi6Rkui-5" target="Q6KyBkPjPvalgUi6Rkui-23" edge="1">
          <mxGeometry relative="1" as="geometry" />
        </mxCell>
        <mxCell id="Q6KyBkPjPvalgUi6Rkui-4" style="rounded=0;orthogonalLoop=1;jettySize=auto;html=1;endArrow=none;endFill=0;" parent="1" source="Q6KyBkPjPvalgUi6Rkui-5" target="Q6KyBkPjPvalgUi6Rkui-25" edge="1">
          <mxGeometry relative="1" as="geometry" />
        </mxCell>
        <mxCell id="Q6KyBkPjPvalgUi6Rkui-5" value="" style="sketch=0;aspect=fixed;html=1;points=[];align=center;image;fontSize=12;image=img/lib/mscae/Azure_AD_Domain_Services.svg;" parent="1" vertex="1">
          <mxGeometry x="197.59" y="992.1300000000001" width="50" height="50" as="geometry" />
        </mxCell>
        <mxCell id="Q6KyBkPjPvalgUi6Rkui-6" value="AWS Cloud" style="points=[[0,0],[0.25,0],[0.5,0],[0.75,0],[1,0],[1,0.25],[1,0.5],[1,0.75],[1,1],[0.75,1],[0.5,1],[0.25,1],[0,1],[0,0.75],[0,0.5],[0,0.25]];outlineConnect=0;gradientColor=none;html=1;whiteSpace=wrap;fontSize=12;fontStyle=0;container=1;pointerEvents=0;collapsible=0;recursiveResize=0;shape=mxgraph.aws4.group;grIcon=mxgraph.aws4.group_aws_cloud_alt;strokeColor=#232F3E;fillColor=none;verticalAlign=top;align=left;spacingLeft=30;fontColor=#232F3E;dashed=0;" parent="1" vertex="1">
          <mxGeometry x="458" y="939" width="360" height="280" as="geometry" />
        </mxCell>
        <mxCell id="Q6KyBkPjPvalgUi6Rkui-7" value="" style="sketch=0;points=[[0,0,0],[0.25,0,0],[0.5,0,0],[0.75,0,0],[1,0,0],[0,1,0],[0.25,1,0],[0.5,1,0],[0.75,1,0],[1,1,0],[0,0.25,0],[0,0.5,0],[0,0.75,0],[1,0.25,0],[1,0.5,0],[1,0.75,0]];outlineConnect=0;fontColor=#232F3E;gradientColor=#4D72F3;gradientDirection=north;fillColor=#3334B9;strokeColor=#ffffff;dashed=0;verticalLabelPosition=bottom;verticalAlign=top;align=center;html=1;fontSize=12;fontStyle=0;aspect=fixed;shape=mxgraph.aws4.resourceIcon;resIcon=mxgraph.aws4.connect;" parent="Q6KyBkPjPvalgUi6Rkui-6" vertex="1">
          <mxGeometry x="270" y="80" width="70" height="70" as="geometry" />
        </mxCell>
        <mxCell id="Q6KyBkPjPvalgUi6Rkui-8" style="edgeStyle=none;rounded=0;orthogonalLoop=1;jettySize=auto;html=1;exitX=1;exitY=0.5;exitDx=0;exitDy=0;exitPerimeter=0;startArrow=none;startFill=0;endArrow=classic;endFill=1;" parent="Q6KyBkPjPvalgUi6Rkui-6" source="Q6KyBkPjPvalgUi6Rkui-9" target="Q6KyBkPjPvalgUi6Rkui-7" edge="1">
          <mxGeometry relative="1" as="geometry" />
        </mxCell>
        <mxCell id="Q6KyBkPjPvalgUi6Rkui-9" value="" style="sketch=0;points=[[0,0,0],[0.25,0,0],[0.5,0,0],[0.75,0,0],[1,0,0],[0,1,0],[0.25,1,0],[0.5,1,0],[0.75,1,0],[1,1,0],[0,0.25,0],[0,0.5,0],[0,0.75,0],[1,0.25,0],[1,0.5,0],[1,0.75,0]];outlineConnect=0;fontColor=#232F3E;gradientColor=#F54749;gradientDirection=north;fillColor=#C7131F;strokeColor=#ffffff;dashed=0;verticalLabelPosition=bottom;verticalAlign=top;align=center;html=1;fontSize=12;fontStyle=0;aspect=fixed;shape=mxgraph.aws4.resourceIcon;resIcon=mxgraph.aws4.single_sign_on;" parent="Q6KyBkPjPvalgUi6Rkui-6" vertex="1">
          <mxGeometry x="40" y="86" width="58" height="58" as="geometry" />
        </mxCell>
        <mxCell id="Q6KyBkPjPvalgUi6Rkui-10" value="6" style="ellipse;whiteSpace=wrap;html=1;fillColor=#E6E6E6;" parent="Q6KyBkPjPvalgUi6Rkui-6" vertex="1">
          <mxGeometry x="150" y="100" width="30.41" height="30" as="geometry" />
        </mxCell>
        <mxCell id="Q6KyBkPjPvalgUi6Rkui-11" value="&lt;span style=&quot;font-size: 10px;&quot;&gt;Enterprise App&lt;br&gt;&amp;nbsp;Amazon Connect&lt;/span&gt;" style="text;html=1;resizable=0;autosize=1;align=center;verticalAlign=middle;points=[];fillColor=default;strokeColor=none;rounded=0;" parent="1" vertex="1">
          <mxGeometry x="286" y="1139" width="100" height="40" as="geometry" />
        </mxCell>
        <mxCell id="Q6KyBkPjPvalgUi6Rkui-12" value="" style="shape=image;verticalLabelPosition=bottom;labelBackgroundColor=default;verticalAlign=top;aspect=fixed;imageAspect=0;image=data:image/png,iVBORw0KGgoAAAANSUhEUgAAAKAAAACLCAYAAADmpJLYAAAgAElEQVR4nO2deXAc133nP6977hncAEGCpHiLN3VLlmhaPuQklhXbcRy51nHsbLLrjbNJKqlk461ssls5NuvKJnEq9sbXylc2iiwrlmRZtmhRkqnDIkVKPMQbIA6CxA3MPdPne/tHz+AgQRADDIiD86ma4lEz3a+7v/177/3e7/d7Ip/PKypUmCe0+W7AUkAqhelIcpY7301ZdFQEOEukUgzmHI725+mIm/PdnEVHRYCzwJGKvpTNI8cS/N/jCTY0hOa7SYuOigBniOMqOkYMPv/qED86meYja2OEfJXbWSqVOzYDHFdx5FKGP3uhn0eOxdm2PMi7N1bNd7MWJb75bsBiQimFAn7SmuJ/HxjmwIDB7c1hHlobI+rXJnyviBBiHlq6eKgIsAQcBY+8NcwXD43QkXMAxfZlQfZsjE74XspwaR0y2LQsTE1Qn5/GLhIqXfA0SRoOf/xiH//j9SE68w4K2FUf4oE1UWpDE0XWk7H5xzeGeOJYfH4au4ioWMBp0D5i8N9fHuZHnWnyUgECXMWtzWHetTY6oZt1pKI3K/lBu8HpYYcHt9Swoto/f41f4FQs4DV4vSPFH+zt40cdafJuYWwnYV3Mz90rQjTFJr7DI1mbQ11pTBe6sw7/58DwPLR68VAR4BQ8cTzOf9s/xMt9ec/yCUHR+t3TEmbPmgi6NnGS0ZNxeLYjBz5F2lU8dS7DsZ7s/FzAIqAiwEmwpeJLrw/zNweHeXPEwJAKijpTioawxm3LQ6ytC0z4nWFL2uM2bw+bIEAKQbfp8ievDl7/i1gkVAR4GYm8w+/8pId/PDrC6bSFBWOWD8CFPSsjvGtNhMBljufBrMOhizkMt2gtwQLe6rX4wcnE9byMRUNFgOPoGDH57N4+nmxL0523cWDM8gEoRX1QZ/eqGDc3Xrns1pGyeKYzMyo+77eKtKP464Nx0pY7wUdYoSLAUV5rT/KHe/v5cXuGtCU98VzuQ5aKdywPcldLkIh/4q1Lmy6tQxadCXviXRXgojg1YvLIoUHciv4mcMML0JWKp08k+PNXh3n+UgZTycm/qBQIjTtWRdnadKX168/YHO3J48KYBRxF4KD46lsJLiRNXFlRYZEbVoBKKTKWy5cODvL5N4Z5bcDA0fDuyGSrZ67ivuYA97YEqb7M8SyV4lzc4vnuHGiT/FiAEtCZk3z5UBzTqQiwyA0pQFcq+tIO/3BgmC+9GefoiIXUCn2umuwDCMH71sW4ZdmV1i+ZdzkzZNGVtr3/kMr7jI73Cn/6BN89neJobw7LvYqlvcG44QRouZLTQwZ/8dogXz0a56JRGO+NDvom+UjFLY0B7mwJUxu5cvHoQsLi8MXclScbb+gK3fKgKfm7Q3EShqxMSLjBBJizJIe6c/zNz4b51skkQ5b0usxrRawoeHB9FbsaQ2iXfdeRirMjNgf6jMm73/EIAT7BjzpyvNKZIW9XrOANI8Bk3mFfW5ovHBzme+fSgLi2YACkYnNtgLtXhq9YdgOIZx1ODxn05pzJx46TH5SvvjXCpYx9w09IbggBDmYc/u1Uir8/OMyznTnw6aBdbbYxDqXAVTy4Psb2puAVy24ArSMmh3ty17ai49EVr/QaPN+WJWPe2FZwSQvQlYr2hMnXj8X5wsERDg6a4NfwBmfTsDwKVkd87F4doXkS62c6kpNDFm8OmKXdSeVZ3+8cjdM6bGDfwBOSJRuOZTqSsyMm3zie5JvHE1iuAF9RfNPEVTy0Icb2ZUEC+pUK68vYnBowiJuyIGym1w0LAQKOjZh873SalTUBVlQtaVtwVZbkVbtScXbI5AsHR/jq0QSWy/TGe+NRijq/xnvWR1lRNXk83+khg8P9+dKPXcSv8e2TKY705jFu0AnJkhTgUNbh8VMpHjuVAqEhtBlcpqt4YG2UzY0hgpNkuxm25O0hm+NxC2YadS8ESdPhuyeTdCUt5A3olllyArRdxesXcuw7ny1YJoWa7piviFJENfjo1mpWXSWauTtp0TpoYs12cVcXPN6W4UCPQda68azgkhNgd9Li+Y4Mx0YMzzIJNfaZrgilYvfKMNuWBYkEJr9FJ/pMjvUbTB61UAKF7vuJ43HODho3nFtmSQnQciTPnc/wbGcWfDMRhSdSv4JP7axjZWxy62c6kiNDJseHzZmP/8ajC/ZdMHipM8dIzpn98RYRS0aASilODhi8fCFLf94pWLySjwJKsqPJx66WENGrpFSeHTRoGzZmZfiuIAD/fCLOW715nBvICi4ZARqu4tFzKZ7uyszCuSQQFnz21kaaI5NbP6UUB3vyvDWb2e9kaILWEZd957NcTFrlO+4CZ0kIUCnF610Zjl/KlzTXmORI1FXp3Ls2ekXIVZGMLTk1bNGVleUVIEBI8KWTSX7anb9hxoJLQoApw+V75zK83Juf+RUpBRb8+T2NNIevbkLP9OXoTBhzd+dceKktw8n+/A0RLbMkBPj06QQHLmZmPybz6+zZWEU0ePXbsv9SjsMDZR7/jUdTPNGRZd8Fg+wN4Jxe9ALsjBv8uD3HuYQ9O1G48Llba1ge8l31MCM5h9Zhh+G5rGosQErJD08nOXBh6ecTL3oB/tPRBC9cynkRzbMRoKP41dvriAW1q1a0evNSltYREzVb399UCAEaHO43eKkjz0AxynqJsqgFeKgrzbHuHGmrUK9lfBj9dAWiFFiSz+ysZnnEN+W84qUegxMJyzv0XI7PhMD2CZ5pT/Ni59K2gotWgIYjeeREmsPD9rio5ss/00TCb97dQNh/det3KWnRMWSRMa7TuEwIOlIOL3dmOT9sXJ9zzgOLVoD7zqU50msyq4UDpdAEfGJzjA11AfQpNHu4O09n0kJpAsQ0gllnjcIRiqc7Mzx9PouzRGfEi1KAIzmH755J0ZqyZq0Dn4TfuqeBkO/q1g+83A/pqkKGnJp7/QEIGDEkr3RmODJZ0tMSYFEK8PGTCd4YyJOXEpDMyPusFD4B71oeYEdz+Jo+5XeujfLghipWhn3eKa8HhQnJgV6DZ9oypIyltw/JohNg+4jBM61p+vLOrANRQhJ+644GQj5xzVrOzdV+Pn1bLe9dEyMkBLjM7USkiBAkbMm+rgwvdaTn/nzXmUUnwK8dS3B0xMQa7Qpn0B0WrN+OBj971k2/uv3auiCfuaOWd98UneWSX4kIOBu3eK4tQ88SWydeVAJ8ozvD8+0Z4uOLB83QAkY1waduqaU6pJdUyf6W5SF++/Za3rUy7FlBYM7VKAQ5F37ak+ep80vLCi6apKS8I/nq0QTdGXuW8QYKHVgbDfLBTTUl/9yvCd65OkIi55IxXd4aNply+lwuBFzIOOw7n+H9q6NsmqRA0mJk0VjA/ecz7O/Ok3YmczqXgIIqXeOjm2Msu0qy0bUIBzTeuz7Cr++sYVuN36sDM9cIgVRwtN/kidMp7CVS521RCHA4a/PIkTgjloPX544vY1XaqocmoCXi5+Ed1bNqU0PUzwdvruLhrdW0hLTChGSORaEJeg2X5zqzHLm0NNwyi0KA/3Ymzav9BbfLqNbGC3EaKM+HV+3T+Ln1UdbWB2fdrpaaAL+0tZpf2lRFjV9cJ0sIbQmL755IkjQWf/j+ghfgxaTFI0fipKUsrfzFZChFY1jnU7tmZ/3Gc3NjiE/dWsf71sRGzzGnCMGIKXnhYo6XOhb/OvGCF+DXjozQljRxy/Bgq/wa97SE2bosXIaWjbGtKcRnbqvlnpbwZXUB5wgNLmQdHj2RpC+1uN0yC1aASinODRr807E4uWL9vtHnqi77XPNgoGBl1M9ndpU+870WPk1wT0uE/3pXAzvrg8x5IWghyLuKN/tNnjizuN0yC1KASimytuQffjaEZVGY6V5eP7cUAUJUF+xqDnLbqui1vz8DQj6N+1ZH+MO76tkQ8839eFAT9JiSb59KczGxeK3gghSgK+HwxRzfPp3G1pj92A9YE/Px6W3V+MudSDSO6pCPB9bH+O3b61nm1woinEshSvrSFt86EsdyFmf4/oIToFSKeN7h714dQk6nht+1UIqgJthYH+Se4kRhDmmI+fnI1ho+uaWW2JwHrsKQ5fAvZ1KcGlycMYMLToCWo9jXnmHfxVyhtMYsD6g86/dLG6ombCo9l7TU+PlP76jjgbURfEqbQyPo+UCHDJcvHxxZlCV/F5QApVT0pC3+8rU+CPlAzDDUqohS+IDNdX4+sHnurd94VlX7+av3rWBnY2hmKzbTRQgyruK5jhyvdy0+t8yCEaBSirTp8tiROB3DCoQ7w/Ia4w8KN8V0HlgToWaKXN+5QBOCNdV+vvKBZhqDGqg5jOUTEFcuf/3a4KKzggtGgFJBR9rmL4/GoRwTVaXQFGytD/GhLeV3vUwHnybY0hDk0YeWE1Oi4A6ag/5YCGyl8faIw9OnEiilFk1S+4IQoFKKwYzDt94o4+bOClZHfdy/KsLy6sC1vz9HBHwad6+O8uWfX47PLohiTkSoSEmX39s/QHYR7cS0IARoS8WZEZOvnkgVUh6ZtotvUhTgCrbXhXhoy/QDTueKoE/jQ9tr+NxddfisORQhYDqKf3x5AFexKKzgghBgd9Lm718dKtT00y/7zARFbUSxfYWPNXXzZ/3G49cEf/zuZj6+uYrAHK6UWAr+5tAInXHrumQMzJZ5F2Ay7/ByR4aXLhjj0h1nmN9bRMI7lkX42JaaK3Y2mi+EEPg1wT881MIdy4JeJHC5FVLcJFuHv3hxgPwi6IrnXYBtCZu/eyOBo1OWFQ9vU2mNO1eE2dpU3qCD2SKEIBbQ+fqHV1Ef1AsJfeUXidIEz5xPc+BCesGvkMyrAPtSFnvPpOhMmeAvpljOEgm3NwV575oI/usRKj8D1tYE+H+/2EJLWC9/9EzhJTZ0+P2fDpBc4IXP502Atqt4a8DkyydSuHqZKg1IL0tu07Igt7ZEZn+8OULXBHevjPBXe5poCepzs1KiCdpHbH58OkXGXLj5xPMmwI64yQ9OphhK2170ga3AmexDCR/F7qYgH1gTIXydlt1mStCn8cHN1Xz2tjqaA1p5o2eEVytHCvifB4boTi/cTRHnJSvOdhWDWRvLdvjQuuhlYfaz44ENUe5aOTchV+WmOqTza7fW0ZWweaIjQ8IuQ9T3eDTBhYzDd48m+d17G2iILrwkSJHPz2W1xcmRShHPuVxKW+hlnqU2Rnw0xXwLZvZbRClF3lEM5Wz6kjbdCZtjQxbn0jan+g0uZB1MqcorQACpWOnX+daHW7h7VYTAJLs+zSfz8kpoQtAQ9S3IN3K2SKUwXUU869CbsrmUtOlKOxyNm6QNSd6SZBxJ2nTpz7vELTkWQD0XL40muGQ5fPN4nDV1AVbXLAy/aJGlp4DriOUq4jmHvrRFX9rhQsrlfNKhN2eTt11SeZeEKUmYkh7DwS7OBS43QnNtrXXBc+czfHB9FXUhndhV9j+ZDyoCnAaGI0nmXUbyDn0ph46kTXvaZSTvksk7JE2XpCkZyrsMmi6p8REp433p8+YWEoxYki8ejbOpOcTOpooAFySOVKTyDsN5l8G0w8W0w5mURSIvyeRdUqbLSF7Sm3XoMyUZS3mz12LaQLFY0kL0P/oEB3rz7G/PsDLio36BDH8WRiuuM1J6sYfDeYdEzqUv7XAp79KdcUjlXBKGw0jOpTfr0p6zyVnS85FPWCEUl9290YHcdb6aaSK8cLB/OZFiV3OIe0PRBeGoX9ICdKQia7kk8g4jWYeBnORizmUg55LOOQznHeI5l4Gsy6WcQ0/eHduztyiyYkLeFb2WuvKf16E6x2w5OmjyzNkMa2oDrKmd/wnJkhOgIxVZ07NiibxLwnBJZl0Gcw59GYeujONtZlhcqBeCmpCgJuxnm/DPzoDNMoPguqAgbzqM5BxWVfvR5zBLcDosOQFK5cUXZi1J1nQRCJqq/DRV+dnerLwJ6GxD/a+KWPgCLJSwWXGVrWivN/PiiK5QocjCcotXuOGoCLDCvFIRYIV5pSLACvNKRYAV5pWKACvMKxUBVphXyu6IvloydCmbwVS4cSirAJVSZB11Rf5BQBcEdRZclHKF+aesArQVfPIHl9jblh5bknLh0ztr+Nw7G1hXvzR296lQPso6BjzRk2M4bnuH9enex69ztN/kWK9ZzlNVWCKUVYB727JczLmgedufisJ+tydSFoeGzEVXu67C3FM2AcZzDvsv5BkwJWgKhUQhQShcpTjVn+d479LYXqpC+SibAH/WlaU35yAFjEZmjosefn3A5KVL+XKdrsISoWwCfLQ1xUXD9QQn4f7mEFtjPnC8KM1UzuH8kEVfyi7XKSssAcoiwM64SdugVRjjCXAV966MsLExOFpwUgGtwyZHeipWsMIYZRHgT9tyDOcVqhjP7hOsbgjwnlUR1sf8gABN42TcZv8lA9OtTEYqeMxagLZUPNmWYsh0Ct2v5N7mIJtr/exeHWZbQ7CQUSbI2JKzg3naBitWsILHrAV4qi9HW9was2qu5P5VUdbXBtjQEKSlzl84iwBN0JqweO3i4tzVp0L5mfVKyNNn08Rtz/cH0Bjys7M5REPUR0DXuH1ZiE3VOVpTDgjBpazkcI/Bw3mH2uu8d8eNiOFIFF5NQr+Y2Zq8KxV5R5LOu+QciSMVYZ9GTVinOqjPap1/VgpI5Bz2dWZJOwWXiyu5d0WYjXUBArpnXO9eEeKWxgCtCQt8GoYDrSM2x3vyvGtD6RXsTVdysi+PYcmyry2bruKWljDVIX3CsXuTFt1JC9tV6EJgu4qWWj9r64Mzqu6VsyUdwwbjq+fWRnSao35CU9Q1tBxJT9qmO27h1wQSha4J1tcHaSpkuSmlMBzFy+1pXu4zSOQ9AWoabK8L8NEt1TRXXTsjTirFcNbhjYs53uw3uJRxyVsSy5VI5RVdjwQ1VsQC3N0cYM+6GFVBreRnMisBvt6d5ULG9VJsNS/zfs+aKKtrxi5wTW2ArY1BqrqypJXyuuG0zfMXZiZAy1V852iK1rjJaErrDGuZX46dd/nCL64kFtQZny7bOmTw6IkU3WkHTRM4luRjO2r4tdoA+gyqC/RnbP7+tSGSxRdXCh7cEOWhLdVTCjDvKF6/kOM7R+L4ghpKQmNI5z/fXUdTzI/jKk4P5vnGsRRH+3IcS5jkLUbvzZ11AXbfFLmmAAfSNvu7cuzrynJm0OBs0iJpjSslLArpp0IR8+n8tNbPcx05HtoQYc+6GNHA9GvPzEqAj51NknK81Y7ixjDblgWpDo01IBLQ2bUsyOa6AIeHLNAUw6bLsUGDnqRFS4nlwpSCo0MGB/vyTFDJbAXoKm6rDhDUxRUD42RecaTf4njc8s5pSe5aHZ1xUdOsJXm+K8egLb3jOYqNtf5regekVFxKO/z0Uh6CGkjYEPOTsyS2Kzk7aPC/XhnmyY7MWEWH4sUoSDuSqU7hSMWJAYPvn0qxtz3jXW/x5daYuN9dYYEhIyWHhk0ODRqcGjQ4PWLziZ01LIv6ptU1z1iAF5MmP+s2MGThLXYU714dZk3Nldn2u5aH2LUsxOFBk6JjsCdp83pXjl/eNYvyEOoqfy8yofLquC+Mt1qFtzrgg9/b3cjymB/t8moBGgi98DtNeH/OZtyjgfAXNjActSbT/LEY1w4UQvfGd0M5l789OMyTbRnwF7YFm1AaWnnd41XO40jFGz15vvZWnOfaMyRt6Z1HKZDg16EpqFEX1JEKBk2XIaOgZg3wwesDJudTNnlX8Ru31rJ8GsnvMxbgT1ozpArjC4QGSrJ7TZTm2JWHXF4VYGtjiPpglhHbBSG4mHV5qSvHg1urS6rnrGuCd6wI0xTWJ9xLqdSVFukyAQoBOUfx2oCB7Y6rRmor/t0tNXxwSxWRwJVt0QSIy56cQs24CIIrQRXLeMx6O1pFzpK8cD7Ld8+kC5v9SHY3h2iO+Qn7NBylGMg6ZMyrm7+3+/N85a04z7SlPaOiecduCGrc2xxmbUOQNVGdhpAPqRR9OYeOpMOJ/hyHhiwkAnQYMF2+dmSEVTEfH95cdc1NIksWoFIKy1U8cSpFXoz+J+uq/GxpChKd5AEGdMHOxgC3NgR4sTcPmiJpuxwfMmkbMti5YvoV7YO64Ddur8Vy5AQT70o1VljoKliO4s0+g9f78wWDqBAKdi8P8Sf3NhItoXztbPYddF1VthIeroLOhM2jJ1PoQrCx2s/utVE+uiHKuroAUb+GJeFCwuLYoElD+Mrx2cWkxb+eSPKTjjSG8nq0oCbYVOPnQ5uq+cjGKDcvCxHUx+6PUoqsLXm1I8M/n0rxbGcWUwKaoN9w+caROJvqA9y5Up+yCteMLOC5IZNDAwa20Ardr+SD66KsnKI285amIDuXh3ixJ+fdfA26sw4/bMuUJECfJri5sfTAVkcqWodNDlwyMB0vTEwoRUtI48/2NLGyOnBl17vQEZBwJHsvZDg8ZLCxys8f3FXPJ26tw3eZy2V1bYDda6/cM9l0JM+1Ztjbni1MigQ+YGtdgN+9vZ6Pba8hMImAipvu/MLmGjY3BTEcxQsXDUwpQdc4OGCwvyvH+rrAlJOekh3RCnjyRJLRkIKCKbhvTZT6Sd6uIo0xH1uagiwLj+0g3mfYPN+dJWk4pTajZIazDt8/neHxMxnPJ4EgqAk+taOGPetj814laqbETcmPLuSIBXX+w631fPr2evyFeMzp0Dps8pP2LOfiDuBNbNbGAvz7XfU8vGNy8V3OuvoQf3pfAzdFdLRigSYf/LA1RXvcmnLTxJIEqJQiY0q+35rGLrZLwtpaPxuaAkSmmH7rQnBbY4A9LWG8UC1vAJTMuByd4wCFjOnySleOR44lIOCNBwPA7lVR/mj3sjk995xSmFT4lWBHbYBfv6OupJ87UvHC+SxHBozRCUeNDg+uDfPxbVX4Sngpb1sZ5f6WIFF9LBTvzUGDrpSDPYW7oCQBugreupSlPW0j0bwbIOFTm2tomcaqxtr6ILcsD4+dVEC/6bK3LTtnG6lYjuRYb55vvBWn1/Dstg/J9hqdz7+rgYhfW9wZewrqghqf2lFNbJLx91QMZ20O9xtczBZWshTc0hTkAxui1IRKryP90S1V1PjGlaiTkLFcrCk2TSypxbar+M7RBG7xgSkIa3D36ghV02hwTUhnfX2A5VEfhchVhg3JCxdzDGbKHycolaIrafHdU0le6sl5qQIoWoI6v39XAzuWz2Q7r4VXza4uoPHAxtKd+sd78lxMmAUngcIPbG8McVvLzDb6uXVllLC/NOFOW4BSKRJ5l39tzSCLW7spxS1NQdbXBwhOcwa5szHIL6yOjkbIIGAkZ/NCW6qkhk+HpOHyzPkMXz+VKrgnFFU+eHBDjIdvKa278oIai91LcQgxzyhBQNdYVecv2aEPcHTQpisjR3uy5WGdmxsC1Ewxlp+KuoiPcFjzdt2dJtOeBVuOYl9buvCvgpl1FB/bXE19CeZ6dU2AW1eG8Z9JYRem/EOW5Km2LA/f0lC2wtmmI9nfmeXbR0ZGfW1+odhVH+LP7p/JuK9YALrg1J73bttrT51P5/0rSrdYrlScSlr0moXuV0Jz1Ed1QONi0ppxq5r9fs5hYUyzp5iWAFXB2fnYiYIlUZ7l8inJ7nVRgn4Ny5WF5zzVg1HoGqyt9rGl1sfbCQc0gSEVpwct2oYNti6b/R6/rlQc683z6Ikk51LeDdYUbK3y8+d7GqmPzMD7VKb15rIiFGE/bKgr3WIlDZe84Xr1enWB0ATHEyZ/+uoAdQdmHqV3PudSSgLutJ6EK6ErZfFif76wjOV1RxvrfHQnLFJ5B6XAr4spza9b8P6n8i7ragO8HR9zvyQd+PHZNFuaQrOaFCil6M/YfP9cmmc6Mt66l1I0h3U+vrWa+9aWPlbyDjxxS9mpXAvXB89qMcOdWDO2i20rkAJR6HUsF3rzkt7Z7NtcWCOeLtMSYNaWPHs65U0c9LEu6EzG5eHvXyqtgYVuF782tiYrYMix+fq5JJ+9r5HwLLphW8Lj59J89US8YK29Jbhty4P8zu6mGR/3clwJjqtgvmt9lzLgGofjgizobHRRsVwWXo0bqlzjPZ2WAFOWyxdPxq/cK0MAwVJbfZXvK4GRkbzRmeH+DdUlHnOMvedSPH40gWEX1jOlYHdLiC++dzn+hdaFlgFNKMIz3ftNU95nFOX52ooGUOB10cUJI5S2/ljc4GcKrinAvC050WuQSgKXD8/KNRAX3tuSlorvnUjPWICnB/I8eSbFsWEv+BVXsb3Gz2/trGVNbWBx+/vKjF9nbOlRAK7iF1aH+f2769i2PDpl2NbVjnfF7VUQ9WtTrqZcU4Bpw+XZs4Uoi4LrpTgDHttndIZc1hVnXcVzXRkGM/ZohO90SZku3zmR4vvtWaRPAxR1QY0H1sd4aFvNrKKnQ7qn53LhKjnv3sSoX8dz2Y2F5Pg0qPJrNIb1kts31d2d6sWfUoCuVPTkXB5ryxZizORoew/95nqqS/S8X05n3OIrh0d4siM7uhSUdhR7z6X55O31JR3rsRNJnjqbxlSFWDmpeOfqKL93T8O0fZRX4/JQLChE38xw9UYX2rxPqKNBjaBfG1OOgBFDMpjzooyuV/umFGDGcnnzYpas5UBA9+YeruI/bqthfW2ASAlxfJNRE9B477oYT7amQddBQFYqvvh2vCQB7mtN8f1TKbqzXqwhtmTPihC/c2sNyyeJTywVTVNXdC+2q7BmKMC+tI07zzYwoAlWRX3UBDQvCgboSjucT859YMh4plTQYM7l8dNpr8xaASHh4R3VBMoQPRIL6mxrCrG6KkgxmtQFOodtTvbnpuXq6BwxeOxUkkMDBm6hSZtr/fzKlmruWhUtS+JSVVAnqDMuJwIShf3WZsL+zpwXOzePZlAIwZb6gLeGX+jV+nMuZ4dMRrLXT4RXFaDlSDrjFod7jNGwcaFgU42PHSvC6GUYE+maYFW1j3ffsC4AAAcCSURBVJ9fE/bGk4WlOVMqnj2VvmbORc6WfOVokme78uQABER0eP/6Kj66vbRI66lojPk9a19sjyZoT5i0DZdW81ApRdpyebo9Q36Ogi9KYXtTkJUx3+gs1xHwZr/Ba13Z69aGqz6hRN7ljQt5cuPeVD8aD2+pJuqfXS7oeBojPt6zITbBGlgKvnUqSdaWU1rBx08m+HF7hoQtRwNj37c6zCd3VtFQxg2Zm6v8RD0TOGoFTyccjgxbWCVOxL53LEFvzp2Nq7dsbG4Ksbw2OBp+j4AzcYu97Rl6UzNfjiuFqwrwYtbhn88VF/E9fC48tLXai+csEyG/4ObGIHc0BEdn1Up40dJHLmWvOtF+40KGJ06l6EzZo0lR9ywL8smt1WxpDJavgUDIp7GlNkBjSB/trjI2HOk1eLtvejUPpVSc6M/zxUPD3jppiSsGc0E0qPNzN0XYVRcYtYJZqfhhV46vH0+RMWe2zJIyXB47PkJX4to9xKRSypgupwcMOhM2xZ22dRTr63xsagyVdeiiCcHyiM6DG2OFt9Bzjkodvn5seFILM5ix+eaxJIcHDaxCRPa6mI9f2VLNnrXRWc96J+O+VSE2VPlHx6po8Eafwb+8naD1GrVuHKl4uy/Hf3lxkLNZ6Vm/BeKTfM/aCHevDHvD/IIV7DccvnMywd8eHKZ7GiIqYjiSVzrSfO6Ffr5zLMHgNMaSk/ZTA1mHVzqzhbAjz/US0uDhrVVlG1eNpzqss3tNBA4Pj3bFEth3waA3bbG2NjgaMu9IxbeOp/jJhTxJW426XJojOq6jeLVzduOX922MTRrZfcfKCLuWBzgRN8hKQINhy+WptixZS/Ghm6u4c2WEhpgPX0FctqvoTlq80pHne6eT7O81wFV8YnOUp9pz5MZn5s0TjTE/H9tazfmkzUvdudECA5fSNt98O0Fn3ORdqyPsuSnKqprA6PNXSuEoyJkuF5MWpwcsXryY4+yQybEhkxUhjSniUEe5QoCuVFxI2bzQnRuXP6sI+DU+tGXmS2RTEdA11tYFuL8lxP4eY9QuJy3FK+1ZWm4JEC4I8LlzKZ44naTfdMYS0wV0ZR0ePZsqKYx8AoWf3bYqQniSKOm6iI8Pbqri7QGLA/1GIVdT0Gu4PNWe4dSIxYaGDLURnZAukEDeVgylbM4OWZxO2KAUD62J8Os7avlJZ94T4ALg7pYIn9nlkjNdDvYX779gIO/w1PksR/pM9rbnaIh5pUNiuiDluriuwrQkIzmH7rTD6YSFVwZckZRiylD8IlcIMJl3ONGX52LG8VYplCKgCW6rD7Kuvrxjq/HUBX38ys017O8eEyAaPHIqwYe31xD2a5zqy/KNI3HakhauGmc9CkLozc8wNMQ7CKC8GMWr8I5VMX51h0vKGuFUwi5UHhCkXMXhIZPDgyZC9+qmKDwLiOvN7DUFe1YE+aP7GlhW5eOyRYjptVDMzV4rYb/Ge9ZGkRL+6Vic13py3lBDE5gKzqVdziWzIASa5kXBZ105bl1YTLwOBbc1BqibRpzoFQJsT1r8oLjPh+11vxEffGh9bFoZUjMlEtC4c2WYhiAMj6tncrjP4NSAwV0rI+xtS/Nmv0HOlkycCc0iSbeIBPSpgzdqQjq/eLOXrPOtkwne7De8iJhirGBBeJZkbMkSCGoaH90Q4dd2VXPn6iidcRNlFxf+lef8nGbzlVLeMqhWWOgvkxWtCft4/8YYsbDGk2cCvNaVpTVVeMkEFP1uEuWJD8YMQDFgQRfc2xzijhVhHlwfYU11iZURpFIITbCmNkBLsdqShCpd8N6NV+aUlhOfJripJsBv7qqjq1DKDQBXkTZcXAXVYT8f2BDDGB07jQ0RZp2rUUiqvlZyenOVn1/eVk1ztc4LHVnahy26UjaXcg7JQsK5EBD1C1aGdHY0htjUFObhzdHRYNuoX+cjN8e87wvAFexaHiJ8jXP7NMHN9QE+vrXK805IaArqLJtGtavpUBXUeWBdjM31AX66IswbPTnaExZdKYdLhuu9WFC47YqgLlgd8tMS0Wmp9rOiLsD9K0LcvSpCTViflrUW+Xx+9MlJpUibksHsWIKQUgohBGvrgjMfX00TVyqGsg5pa2JXGvFrLIv5Gco45Oy59aGtqQ1OOy0gkXNoGzY4N2LTkbYZsWQxwJjqgMa6Kh93rgizqTE04d6ZjqQnZU0wXtUBndqIPlrWbjJcqUgZLsP5sdmlXxM0RHzEZhqSNcW5hrMOpwfynEs4dGRsTKmQ0kuxRSjCumB9NMDaap01DQFuqgniK7GXnCDACrNDKkXRqM31yzofqML1lfPaKiVKy4gmBEtQd6MIIcavS5SFyn7BFeaVigArzCsVAVaYVyoCrDCvVARYYV6pCLDCvFIRYIV55f8DwT+3yW2iGGoAAAAASUVORK5CYII=;" parent="1" vertex="1">
          <mxGeometry x="59" y="940" width="60" height="52.13" as="geometry" />
        </mxCell>
        <mxCell id="Q6KyBkPjPvalgUi6Rkui-13" value="" style="whiteSpace=wrap;html=1;fillColor=none;dashed=1;" parent="1" vertex="1">
          <mxGeometry x="58" y="1339" width="760" height="100" as="geometry" />
        </mxCell>
        <mxCell id="Q6KyBkPjPvalgUi6Rkui-14" style="edgeStyle=none;rounded=0;orthogonalLoop=1;jettySize=auto;html=1;exitX=0.25;exitY=0;exitDx=0;exitDy=0;entryX=0.52;entryY=1;entryDx=0;entryDy=0;entryPerimeter=0;endArrow=none;endFill=0;startArrow=classic;startFill=1;" parent="1" source="Q6KyBkPjPvalgUi6Rkui-16" target="Q6KyBkPjPvalgUi6Rkui-11" edge="1">
          <mxGeometry relative="1" as="geometry">
            <mxPoint x="354.84647212507844" y="1250.374583125168" as="sourcePoint" />
          </mxGeometry>
        </mxCell>
        <mxCell id="Q6KyBkPjPvalgUi6Rkui-15" style="edgeStyle=none;rounded=0;orthogonalLoop=1;jettySize=auto;html=1;exitX=0.75;exitY=0;exitDx=0;exitDy=0;entryX=0.5;entryY=1;entryDx=0;entryDy=0;entryPerimeter=0;endArrow=classic;endFill=1;startArrow=classic;startFill=1;" parent="1" source="Q6KyBkPjPvalgUi6Rkui-16" target="Q6KyBkPjPvalgUi6Rkui-9" edge="1">
          <mxGeometry relative="1" as="geometry" />
        </mxCell>
        <mxCell id="Q6KyBkPjPvalgUi6Rkui-16" value="" style="strokeColor=#dddddd;shadow=1;strokeWidth=1;rounded=1;absoluteArcSize=1;arcSize=2;labelPosition=center;verticalLabelPosition=middle;align=center;verticalAlign=bottom;spacingLeft=0;fontColor=#999999;fontSize=12;whiteSpace=wrap;spacingBottom=2;" parent="1" vertex="1">
          <mxGeometry x="366" y="1349" width="70" height="62.5" as="geometry" />
        </mxCell>
        <mxCell id="Q6KyBkPjPvalgUi6Rkui-17" value="" style="sketch=0;dashed=0;connectable=0;html=1;fillColor=#757575;strokeColor=none;shape=mxgraph.gcp2.laptop;part=1;" parent="Q6KyBkPjPvalgUi6Rkui-16" vertex="1">
          <mxGeometry x="0.5" width="50" height="33" relative="1" as="geometry">
            <mxPoint x="-25" y="18.5" as="offset" />
          </mxGeometry>
        </mxCell>
        <mxCell id="Q6KyBkPjPvalgUi6Rkui-18" value="&lt;span style=&quot;font-size: 10px;&quot;&gt;User via browser&lt;/span&gt;" style="text;html=1;resizable=0;autosize=1;align=center;verticalAlign=middle;points=[];fillColor=default;strokeColor=none;rounded=0;" parent="1" vertex="1">
          <mxGeometry x="358" y="1409" width="100" height="30" as="geometry" />
        </mxCell>
        <mxCell id="Q6KyBkPjPvalgUi6Rkui-19" style="edgeStyle=orthogonalEdgeStyle;rounded=0;orthogonalLoop=1;jettySize=auto;html=1;exitX=0.5;exitY=0;exitDx=0;exitDy=0;entryX=1.02;entryY=0.48;entryDx=0;entryDy=0;entryPerimeter=0;endArrow=none;endFill=0;" parent="1" source="Q6KyBkPjPvalgUi6Rkui-22" target="Q6KyBkPjPvalgUi6Rkui-5" edge="1">
          <mxGeometry relative="1" as="geometry" />
        </mxCell>
        <mxCell id="Q6KyBkPjPvalgUi6Rkui-20" style="edgeStyle=none;rounded=0;orthogonalLoop=1;jettySize=auto;html=1;exitX=0;exitY=0;exitDx=0;exitDy=0;endArrow=classic;endFill=1;startArrow=none;" parent="1" source="Q6KyBkPjPvalgUi6Rkui-29" target="Q6KyBkPjPvalgUi6Rkui-5" edge="1">
          <mxGeometry relative="1" as="geometry" />
        </mxCell>
        <mxCell id="Q6KyBkPjPvalgUi6Rkui-21" style="edgeStyle=none;rounded=0;orthogonalLoop=1;jettySize=auto;html=1;entryX=0.5;entryY=0;entryDx=0;entryDy=0;endArrow=classic;endFill=1;startArrow=classic;exitX=0.74;exitY=1.1;exitDx=0;exitDy=0;exitPerimeter=0;startFill=1;" parent="1" source="Q6KyBkPjPvalgUi6Rkui-11" target="Q6KyBkPjPvalgUi6Rkui-16" edge="1">
          <mxGeometry relative="1" as="geometry">
            <mxPoint x="358" y="1169" as="sourcePoint" />
          </mxGeometry>
        </mxCell>
        <mxCell id="Q6KyBkPjPvalgUi6Rkui-22" value="" style="shape=image;verticalLabelPosition=bottom;labelBackgroundColor=default;verticalAlign=top;aspect=fixed;imageAspect=0;image=data:image/png,iVBORw0KGgoAAAANSUhEUgAAAEkAAABHCAYAAABLeWqsAAAUcUlEQVR4nM2cWY8d13HHf2fp7rvOPhySw12kFkqW6SVxbCA24qckCJCXfIx8gnyaJH7MWxAgCJAF2ZDEgiw5kmlZCyWT4pBDcjjr3Xo5lYfT3bfvNnPvMEFcANVzu/vUqVOnqk6df52W+uBhLAKgOJvEXxQQWthsaZbqGqXgsOfYOXBkDpSaj5+4jI8//oif/MVf8r3vfY8f/uhH3L5+ibWmZrmmyBzsdRydWHACOufpBJIMkkzIZLacALUAlmqatYYmCkCreQY6Svbv7g+Y1s/UQeUvagXLdcV3rgXcuaAwGh7uZfzjpzFxKmilmEcWEeHgaIvVe3/C8+YGP92pc6QT3r0csFQz9FPhl09THu1nJBlY49tlDnqJ0IuFJJvBO78u1xTX1gx3L1murhiUYS7ZqmQ/+DpBZE5DEt+50bDZ1lxdM1xb88I/P3H8/FFCLxGMVuWsn0XaLNO49tscJxmf7WdEtYzrqxYRiFP47HnKxzsp/UQIjWeaiTBIYZAMlVTtThgqqV1THPQczUix1dYYA2qu0Q7JWj2/ZquWZA0Y7S1GAVpDYBWZ+L8nlaRgqs0KLo1RIljlJ0BV3Ko7EA56jn4CoRltr5R3+1mUOa/olx1h98iRZFAT5rOICi3koqpyVVPGW8SixWQQxDlghjmr4XuLkh+bkDohznxcOw9Zb3zztRaVK6cIzNMUNXYdeTCjG8mfzYr3ajrH+Sdj8Vg9QlYWmCGZeLXwflW+IPnPyVdP76eId1LyndaXmrizGJ3D1wCL5DO5QDcifmUab+cHKciMWZ85qOKByORbMry9qFIKxSOLmMIk2bL3PDiJDIdYMFbFs/xdyYOPkqGDCLmylXdeJUObUEr5NiIj/Knw9XqYVK5UnhfyASMyFvIx0aeXSUrTPp/f2VIZIhWhJwWtCiCFW1UHIuDc0KuqVlYYuVR+j/Cv3phhMeMWOtZkwp0LaacZ56KkF2k/LkYx/xqwGsI8UZsw7tyCJuJS5Z5U/o33ed4xDrubNT3zkR1pNiu4Vu4XVlu1FK2hZhWtSNFPhcxNinNqTDr14bBfmUO+qfdUKfm5SJcCVISp3hv5LdOfFUldM1JYPfmul3l03Rp3lzLIjt0vrzP6Hpf3tDGcl+y4sNXrrPvjfl5k3EZR5lzT+J7Gb9YqJHlcmeWKs/qqTtR5VsYq6VdoO0KCIs+bX4HHbEX8f5J1ZyR5Vaq+6vJgXI2NIuDyZ7DYguvE/6su94UJiAhOFt9WiIBT4JCZ4XYesot0XDV7N2HCMvLOQlRtM74AIqUCF1VSJiDOb3TdKySU1swJkMFQATrfrRc7/cL/UweJ82AYjKMLs5cwwedYiVGkblQZRV/Fv0VJqwKVWBQgGZJdb+lzQSVrTU09UJhSUcqbddW050Q7y9WtEsDBLwTtmma9pRkkQmAXG6ZzXtbVpk9P9MIIhSf7+29F+Z/jm5EqDZ95S1LUQ7i+ZqmHXlFbbcX3b4S8uSXekoRKfjIOiY2L6hUbGMWVFcNW209cLVDc2w64vGRIXWG5p8s3cU8J9UBxsW2I7Pm0pJ4dp+dyVaOhbhVhPrtxKhwNhDQbBu6FhVE+KW2GilqgcAKdgceCZJpu55VVQWgV9SC3pgXxW3seYBzy3EENkR6lFIH225PzjkYBQY54lveKQZ3TVYY8qr0sRvbfHwwWaiB5p80AbqxbLrYNWsPTQ8cvniYVt1iMBK/gzZbm6qphq20YpMInuwlPjx2pE8yCE1rs2RshbLUNtzctkT0Hxv3nPz0586ViXRoGbsVWS/MHb9dphprAwC93E37yXod+Iug5cfNqJMkcNALFu9sBP75T40LL0BkI//TZgPcexr4QYOdPL1TOU2u40NJ891rEpWXjiwkLTqLtxmd3W1WSAEYLvUSRZlLeTxx0Y1dWSxaZ9CIFEIR+6jFp8IlpPxW6sdBLHKmbF2jOlSTeqruJEKfzyzNOdl7XUPidv+QdqzFrUXgLKyolE0o6DeMG0GCUXykLmTxPRnguYgRlexabtHGyqip88ff4gCq/C0FV5ZG/CkpJHsTz+1V+0/gPV+ky1k0bS8lzllwzxqAqbV+F7DgqOHIduz8OlYy/UmLfos6AIievZdtpj3MkdCKzOAMGEBla/6uQXZRB2XHx95h81QA/QnMAa0x7Rc7ge5asizWZSnYRJoWwSqYLIPhgq1gMgynRAyZ5FvcmN9Tzyevytm7BtlWy2TjMeYYVFLnHOJQqQg5nyPD1cX7jcaNCfpfvs+zRIoOQieAQMibbzZRbUZ448VDJ+W0qL05WtvPTSHJx85EXM1MNCVWXkKIGPl4ymfZ37k8lnjQGaZQbX5mcmFPlFkpsSnIo9bx6ymPSPK19QBYEpQp8ppghleM+uSXJgu6WY0YypqR8aCVvkTkDW9FexE+mvKIlZYs0LgZQgFjVKkrV3WQa0n0aX29FWT6oqfdl2oEtmfxZMd7S3c6BalbpfIF7UrxhkOQcgTtvVxYYZPRZ+fwsJuO3KgvCq9C5MG6nGFoVlYEUuPc5VpMhRDtEuQt3di6/ippSThNGVooyM/X8vKijyPmiZIuYMhzuiAgVKko7ClUG2dHgXQxUieSWNA62VWkUyCt4T7NQwe/tskyRifF1Zy0o4/wWxoxNifOJXJaN6Aw9ZVTzUF4IGF96pjtUGbjHFFQOJreEaQe8hm8xwX8I9qtxb8tjksIphw4GRGaADfsQCLGJ6EsDZ3ILyi84v/67BFSqSK0mRkicj3mLQuU2m4hos82yil9nMnZoQnw+k+W+JhMbrdm8BV8az/IAW6oyV1wG6KjP2sZTtlc+Y7X9hMQEPImv81XvLh3XRpQ/jKbyLYFygqSQJNDV8JyUnTilnipagfZWNeemzh4OpkWPGYrKB+AB+ow4c2UciVPHUd/RiV1+sPS0GDC+Kgmp+NWoGzvSfFky2iBWY1tdVpa+5O7193jjwntsNJ4wkBqPuneoHZzw65M3OEw2SSTMcziDCBhSlHMcifApff5+D46x3G7WWA8jamZOJb19MZzrxXwspZI224b1hgexrIa1puGti4EH3dT8p28LvpkIjUBxbdXSjjSJwJGLaaw85nrwKRdWPub1rQ/YqO9gdYIh5VrjU+q6y2rwjCf9G/SzJpkYemmLo2SdvqvhMAyAnczxL3snHLtj9pKQN1vrbNfWaBl95pFq9dcfn8wd9qsRpREqbq4FbLUNWsHT44z7T2NStzjuU8ShQMNG07DRtqRWcf9oj08O/5mE99lsfsGl5g6h7iOi8WEeYhexF1/kKFkjcSGZWDrJMg+7r7PTu8VhskbiIjLRBCrm7vID3mzH3G5ucLt5lZuNVdq2htVmpswqc+dPs1Tlv8Uq9aqUOOFx3/EfL2M+PPyapehvuFT/T9ajx0Q6zvuYvRo70fSzJo+6t/n8+Js87t7iINlkkNVBOV5v/4yt2j6rQYtr9QvcW77Jdu06bdvKwbVJsi9OZhypn0JVS9IaGoEmys9RD1LhZOBG3lmEJOd5mDk+Oo75171jHvX2uaMcW3WFVRmajIzqwe3Colx+XAO0ymjZA+60f86SfclGtOMtKl4nJeBi/SENe0TfBTwdfMav+zsEOsSqG7RMONXt7J/97d5CIxE8JLrRMvz4dp17lyOsVnywM+CvPjymv8BnEyOsHTSaIC3NYRSzr59wvfket1q/YC14hlEpbgLqLMTSYzYlWBVzofaYVnDIjdZ9kixC0LTsIX1X5zBZRpGyOzgiYoWGqtGqX5sqm/2vh/0K89ORiLJaomF7yXJ3K2SQCs7A0+OUnz4c0EkctvKlwLTMaKIf8chBYxVMalBLCc16j6Vgj9XgOU17hFLCIKujlcOoJG9mJhTm3V4hGIxOaOsD2sFBvjn2Chy4OjXTYeBCdrorPO+nxG6PyNS5EG1UpMyV1E1kQvjxVG+oJN/QKP8BTJJJuedKMugkQicWrBaUVlPnXUb6kdI6VSg47QuTFqiJJZWIRCIOkw2OkjVexlvUdJf1aIelYJ9AD3JFjU9pcfVuqJWAGubzRqcYldEfXKSTNUCe8TyBvSRhLVzHjBUOrD0z/Ry+PSwpKawBrZUv9CkfHQIDgfVVj/EUQE3FmodlEdMQgiaomsMYh4jlMN5gp3uTVAKe9G/xrH+Fuj7hjaX3ud3+b9ajXYYoxjT/9m5YvONEMcgaZGLpZS1eDK6gxNIMvsDxhJdJSCe9R8sGaBkWEEY3uKdVSxi6nJbKjr1CLsd9tBo7SzReFBhbnJQCVQNqoK3DqhiF42WyRfeozXG6yrP+NkfJOoYUo1PWomesBC8YfscxGatGOgH6WZMHJ2/zYrBNL2uTiuVi9BXr4SOMbrMXH7Hb71NrWMLKLFtX0Vi5dZ/iI9W9modSR5d8x/CwVebGgrfMuBYKtIKqgw5Bax+GBc3LwRa9rEXsIkQ0ke4TuxovBxd41t9mM/qadrB/ioKGnaUuZLd/lQ/3f8iDk29gVcobS++zEu6hleIoadNLajRVwlYkWE3pyJNQyaxkRypQj1SPAxaBcgiOTRV3hmUpAyYCFeGP3itF4kJSsTnPAJHiIyFBk9JJl3gxuMRBvMlysIc7ZctadJVJQD9rkYklE4tVMevhUy7XvwQ14OVgiW7aY3fQJy72paW7IdMVM+VeYU0qx3WkojmhgkwWm9sRT1ZD2yu0rfITaAEom8etfGUSKfKhYdHTV48zelmTg/gCR+lqznv69yx5a0AwOmE1fMbVxuf0swagWAmf0woOEDJit0cmj+i6HVJZHVk5x6CS04JSAZV4vMgVBcNSgZIjAZTflUznl/8udutK/Adlflte6XG6SWvliF2do3SVk3QZh5757lAGCFTMZu0xr7sPiEyXftZgJXyWr34ZDfMSZx+A+yWKm0BE4XBjUMm0oDH8XUAlitxqRhIFv4t3zpd+RqGS6fyKeVZGgTk7S/e5lzDIanTTNt20jRODUWefhhDAqpjL9QeshM+JXUTNdHGiUVisHtC0OwTqPlb/CKWWKZW0yH6r0OfUQmIe3AtQ60y+FV6LQoaCQkTjxODQE5nSdFIICqNT2voAJ0WWrhA0ioTQHNPWu+XqWtBC1ZJhTGLM3XyQKWJSJvMrSUthT8ytqOJ9TYZlnjM1lVwvd0+tXJnQpi6kkzVIXQsdtHDokRi3cCHAB2hfoKzG4QJ8K0pK42qathWh4OV8fJIy6M/uH7xyAh0TmgFaZVV2c5AqlWPytgMX8TLe4iS5QpzeIV5qUQV5z3XYvahjjUezTKoY9+hgZykpc0KWeqB/NqJTbaYIdEzNdIhMD6XylW2RuJGPJZGQbrbE8/5FdnrXOUnfwGVvk7i2x6ymZtxzMK5aUrkwFslmubpVtDB7tKB8BSSNBZepclE4vZki1APqtkOke4yU6c/s0JNCiF3Ei8Flvuq8xdP+FQ6SLSJ1hQv2NZDaCE8bZ0PJTk8AhubuEFLnyk8RCneLna9I+FL4GRvcnJdJBN1XNGIhbMwXlBw+aAse0HcLRH2NY+BqPO1f4xcH3+f+0W/xMl5Fq5BbzYCtmqNmHEoNlwM7ArUWJZniOna/OJekURWPLRpQYttKFUeYK/yKNyu/i+ZZDMnAu506IxUoAu1JssxRvE4vaxLqQSVVrbYu1Ddcx5wYXgwu8enxt/j0+J5HLZ2hZRXL1nC5Zgi1Gsnh7a21AJ8P+xGI5Dld9USIguFHff5c4/aSZTnSBFphtWK5prm5GtBJjP+/RIAPwqUpSemeI/wVKCsEed4g4stmUzcaeZ7knKKTLrHbv8KT3g22Gw+wKqlk3pX8TfysKQSH4jhd5XH3Nl+d3OXF4DIJBqOEtlVcrBmu1AMiPXqI2f7x3faIHLM8vGpYGlita15bD2mEGqPh1mrAH73ZZJB5UI5xPhWoZJy/A07CjK91wlOX0RFXrnJqlEV+dfSyJk/6N/j8+Ju07CEr4YscjBsmqrGLiLMGmRgCHYMSHnVf58HJO+wOrhG7CFRMpOFCZLjRCLhUswRajayy9k9/sDZFJWeTUdAINZH1Wn/3UsTNtSDfGC6QGeI3xrtxxj/snfBvL7t0um5oE1O+LtLakUrI3uAynx7fYy3cxaiMdrCXL+uK1AW8jC/yvL9NP2vQsgdEps8nR9/my85djpNljEpIRViyhtcaAW+2Q9ZCO2HFdrM5X746jarxrBZoorMRvJm0KZYOjv3UcZg69hIP+c9St8IRu4in/eu8v/97ZBhea33EWvgMRcbT/m0+PvwdHnZeZ5DVWQ732Iges9u7Si9t5VPgqBnFjWbAO8s1bjbCqdm7Nef5xmGq0KeMaA4ywGvNgG+vROwnKT8/HNDLXHlIbPzMeL6mEruIr7uvUTcd6qZD2+5TMz12ejf5/PhddvtXAThK1jmK1zlOl3EoFClaweWa5RtLNd5ohayHZnq15PzD+t+ntdBwtx1xmDg6qfBFJ6ab+VRj/MC6yo+L+A1vg8fdW2xEj7lU/4qa+RqFUDcnrIbPSVzIYbJB7KLybEGkhfXQ8q2VGveWozxgT/eE3yglRUazXQ/41orQy4RUhEfdhJPUkeXHebzFemxdKdDicAqO0xWe9G7yqHMHq2Ii0+Fm8z6xizhK1/jV0XfopE1AqGnYjDTvLNX4wVqD11sRy8HsjyN/o5SkgLbV3G6G6DyZ+pnu8UUnYT/JSAVsNRPNWykEEcOzwRU+Ovw+h8k6VsVsRDvUzTHH6SonSYsvO29iVINLkeUbyyG/u97gOys1lgNDcErYUfIqJy7/D6g4DDrIhIe9lA8Pe7y33+P+0YAXcUac41WK4XcjUFiYr+ZaHbNkX3Cx/iWXal/QDvY5Ttb55OgP2Qi2eWepyXdXQ95Zjlgyxv//DE5ZkX+jLAm8sFqgZuBa3dIwDTZDw9V6wK9OBvy6k3CQOmIn5Wa72Fx75NSSOIvIFrFbpptsc6Wxw5XGCRc2Im7W69xpNbhStyxZj0WddU7pfwAeHWRootJyDAAAAABJRU5ErkJggg==;" parent="1" vertex="1">
          <mxGeometry x="314.59" y="1099" width="51.41" height="50" as="geometry" />
        </mxCell>
        <mxCell id="Q6KyBkPjPvalgUi6Rkui-23" value="" style="aspect=fixed;html=1;points=[];align=center;image;fontSize=12;image=img/lib/azure2/identity/Groups.svg;" parent="1" vertex="1">
          <mxGeometry x="78" y="1099" width="60.71" height="50" as="geometry" />
        </mxCell>
        <mxCell id="Q6KyBkPjPvalgUi6Rkui-24" value="&lt;span style=&quot;font-size: 10px;&quot;&gt;Azure AD Groups&lt;br&gt;&amp;nbsp;Amazon Connect&lt;/span&gt;" style="text;html=1;resizable=0;autosize=1;align=center;verticalAlign=middle;points=[];fillColor=default;strokeColor=none;rounded=0;" parent="1" vertex="1">
          <mxGeometry x="61" y="1149" width="100" height="40" as="geometry" />
        </mxCell>
        <mxCell id="Q6KyBkPjPvalgUi6Rkui-25" value="" style="aspect=fixed;html=1;points=[];align=center;image;fontSize=12;image=img/lib/azure2/security/Conditional_Access.svg;" parent="1" vertex="1">
          <mxGeometry x="202.41" y="1099" width="41.18" height="50" as="geometry" />
        </mxCell>
        <mxCell id="Q6KyBkPjPvalgUi6Rkui-26" value="&lt;span style=&quot;font-size: 10px;&quot;&gt;Conditional&amp;nbsp;&lt;br&gt;&lt;/span&gt;Access" style="text;html=1;resizable=0;autosize=1;align=center;verticalAlign=middle;points=[];fillColor=default;strokeColor=none;rounded=0;" parent="1" vertex="1">
          <mxGeometry x="186" y="1149" width="80" height="40" as="geometry" />
        </mxCell>
        <mxCell id="Q6KyBkPjPvalgUi6Rkui-27" value="&lt;span style=&quot;font-size: 10px;&quot;&gt;Azure AD&lt;/span&gt;" style="text;html=1;resizable=0;autosize=1;align=center;verticalAlign=middle;points=[];fillColor=default;strokeColor=none;rounded=0;" parent="1" vertex="1">
          <mxGeometry x="188" y="1049" width="70" height="30" as="geometry" />
        </mxCell>
        <mxCell id="Q6KyBkPjPvalgUi6Rkui-28" style="edgeStyle=none;rounded=0;orthogonalLoop=1;jettySize=auto;html=1;exitX=0.5;exitY=1;exitDx=0;exitDy=0;exitPerimeter=0;entryX=1;entryY=0.5;entryDx=0;entryDy=0;startArrow=none;startFill=0;endArrow=classic;endFill=1;" parent="1" source="Q6KyBkPjPvalgUi6Rkui-7" target="Q6KyBkPjPvalgUi6Rkui-16" edge="1">
          <mxGeometry relative="1" as="geometry" />
        </mxCell>
        <mxCell id="Q6KyBkPjPvalgUi6Rkui-29" value="3" style="ellipse;whiteSpace=wrap;html=1;fillColor=#E6E6E6;" parent="1" vertex="1">
          <mxGeometry x="268" y="1059" width="30.41" height="30" as="geometry" />
        </mxCell>
        <mxCell id="Q6KyBkPjPvalgUi6Rkui-30" value="" style="edgeStyle=none;rounded=0;orthogonalLoop=1;jettySize=auto;html=1;exitX=0;exitY=0;exitDx=0;exitDy=0;endArrow=none;endFill=1;" parent="1" source="Q6KyBkPjPvalgUi6Rkui-22" target="Q6KyBkPjPvalgUi6Rkui-29" edge="1">
          <mxGeometry relative="1" as="geometry">
            <mxPoint x="314.5899999999999" y="1099" as="sourcePoint" />
            <mxPoint x="247.58999999999992" y="1039.3772826086956" as="targetPoint" />
          </mxGeometry>
        </mxCell>
        <mxCell id="Q6KyBkPjPvalgUi6Rkui-31" value="2" style="ellipse;whiteSpace=wrap;html=1;fillColor=#E6E6E6;" parent="1" vertex="1">
          <mxGeometry x="353.79999999999995" y="1199" width="30.41" height="30" as="geometry" />
        </mxCell>
        <mxCell id="Q6KyBkPjPvalgUi6Rkui-32" value="1" style="ellipse;whiteSpace=wrap;html=1;fillColor=#E6E6E6;" parent="1" vertex="1">
          <mxGeometry x="440" y="1239" width="30.41" height="30" as="geometry" />
        </mxCell>
        <mxCell id="Q6KyBkPjPvalgUi6Rkui-33" value="7" style="ellipse;whiteSpace=wrap;html=1;fillColor=#E6E6E6;" parent="1" vertex="1">
          <mxGeometry x="554" y="1249" width="30.41" height="30" as="geometry" />
        </mxCell>
        <mxCell id="Q6KyBkPjPvalgUi6Rkui-34" value="&lt;span style=&quot;font-size: 10px;&quot;&gt;AWs Single Sign On&lt;/span&gt;" style="text;html=1;resizable=0;autosize=1;align=center;verticalAlign=middle;points=[];fillColor=default;strokeColor=none;rounded=0;" parent="1" vertex="1">
          <mxGeometry x="458" y="1099" width="110" height="30" as="geometry" />
        </mxCell>
        <mxCell id="Q6KyBkPjPvalgUi6Rkui-35" value="&lt;span style=&quot;font-size: 10px;&quot;&gt;Amazon Connect&lt;/span&gt;" style="text;html=1;resizable=0;autosize=1;align=center;verticalAlign=middle;points=[];fillColor=default;strokeColor=none;rounded=0;" parent="1" vertex="1">
          <mxGeometry x="693" y="1099" width="100" height="30" as="geometry" />
        </mxCell>
        <mxCell id="Q6KyBkPjPvalgUi6Rkui-36" value="1" style="ellipse;whiteSpace=wrap;html=1;fillColor=#E6E6E6;" parent="1" vertex="1">
          <mxGeometry x="70.59000000000003" y="1469" width="30.41" height="30" as="geometry" />
        </mxCell>
        <mxCell id="Q6KyBkPjPvalgUi6Rkui-37" value="&lt;font style=&quot;font-size: 11px;&quot;&gt;Amazon connect user opens access the Amazon connect Endpoint&amp;nbsp; https://&amp;lt;name_of_endpoint&amp;gt;.my.connect.aws.&lt;/font&gt;" style="text;html=1;resizable=0;autosize=1;align=center;verticalAlign=middle;points=[];fillColor=default;strokeColor=none;rounded=0;" parent="1" vertex="1">
          <mxGeometry x="103" y="1469" width="571" height="26" as="geometry" />
        </mxCell>
        <mxCell id="Q6KyBkPjPvalgUi6Rkui-38" value="&lt;font style=&quot;font-size: 11px;&quot;&gt;The Azure AD enterprise application authenticates against the Azure AD and validates the group memberships of the user&lt;/font&gt;" style="text;html=1;resizable=0;autosize=1;align=center;verticalAlign=middle;points=[];fillColor=default;strokeColor=none;rounded=0;" parent="1" vertex="1">
          <mxGeometry x="102.99999999999999" y="1499" width="610" height="30" as="geometry" />
        </mxCell>
        <mxCell id="Q6KyBkPjPvalgUi6Rkui-39" value="&lt;font style=&quot;font-size: 11px;&quot;&gt;The Azure AD enterprise app returns the SAML assertion&lt;/font&gt;" style="text;html=1;resizable=0;autosize=1;align=left;verticalAlign=middle;points=[];fillColor=default;strokeColor=none;rounded=0;" parent="1" vertex="1">
          <mxGeometry x="111" y="1529" width="300" height="30" as="geometry" />
        </mxCell>
        <mxCell id="Q6KyBkPjPvalgUi6Rkui-40" value="&lt;font style=&quot;font-size: 11px;&quot;&gt;The corporate user is redirected to the AWS endpoint, presenting the SAML assertion&lt;/font&gt;" style="text;html=1;resizable=0;autosize=1;align=left;verticalAlign=middle;points=[];fillColor=default;strokeColor=none;rounded=0;" parent="1" vertex="1">
          <mxGeometry x="111" y="1565" width="440" height="30" as="geometry" />
        </mxCell>
        <mxCell id="Q6KyBkPjPvalgUi6Rkui-41" value="&lt;font style=&quot;font-size: 11px;&quot;&gt;The corporate user chooses a pre-defined role, which invokes the Security Token Service with STS:AssumeRoleWithSAML&lt;/font&gt;" style="text;html=1;resizable=0;autosize=1;align=left;verticalAlign=middle;points=[];fillColor=default;strokeColor=none;rounded=0;" parent="1" vertex="1">
          <mxGeometry x="111" y="1598" width="620" height="30" as="geometry" />
        </mxCell>
        <mxCell id="Q6KyBkPjPvalgUi6Rkui-42" value="2" style="ellipse;whiteSpace=wrap;html=1;fillColor=#E6E6E6;" parent="1" vertex="1">
          <mxGeometry x="70.59000000000003" y="1503" width="30.41" height="30" as="geometry" />
        </mxCell>
        <mxCell id="Q6KyBkPjPvalgUi6Rkui-43" value="3" style="ellipse;whiteSpace=wrap;html=1;fillColor=#E6E6E6;" parent="1" vertex="1">
          <mxGeometry x="70.59000000000003" y="1535" width="30.41" height="30" as="geometry" />
        </mxCell>
        <mxCell id="Q6KyBkPjPvalgUi6Rkui-44" value="4" style="ellipse;whiteSpace=wrap;html=1;fillColor=#E6E6E6;" parent="1" vertex="1">
          <mxGeometry x="71.59000000000003" y="1568" width="30.41" height="30" as="geometry" />
        </mxCell>
        <mxCell id="Q6KyBkPjPvalgUi6Rkui-45" value="5" style="ellipse;whiteSpace=wrap;html=1;fillColor=#E6E6E6;" parent="1" vertex="1">
          <mxGeometry x="73.59000000000003" y="1601" width="30.41" height="30" as="geometry" />
        </mxCell>
        <mxCell id="Q6KyBkPjPvalgUi6Rkui-46" value="6" style="ellipse;whiteSpace=wrap;html=1;fillColor=#E6E6E6;" parent="1" vertex="1">
          <mxGeometry x="74" y="1633" width="30.41" height="30" as="geometry" />
        </mxCell>
        <mxCell id="Q6KyBkPjPvalgUi6Rkui-47" value="&lt;div&gt;&lt;span style=&quot;font-size: 11px;&quot;&gt;The AWS IAM role is assumed and a temporary IAM token is returned.&amp;nbsp;&lt;/span&gt;&lt;span style=&quot;font-size: 11px; background-color: initial;&quot;&gt;The Amazon connect user is redirected to the AWS&amp;nbsp;&lt;/span&gt;&lt;/div&gt;&lt;div&gt;&lt;span style=&quot;font-size: 11px; background-color: initial;&quot;&gt;Management Console for resource access.&lt;/span&gt;&lt;/div&gt;" style="text;html=1;resizable=0;autosize=1;align=left;verticalAlign=middle;points=[];fillColor=default;strokeColor=none;rounded=0;" parent="1" vertex="1">
          <mxGeometry x="111" y="1625" width="620" height="40" as="geometry" />
        </mxCell>
        <mxCell id="Q6KyBkPjPvalgUi6Rkui-48" value="4" style="ellipse;whiteSpace=wrap;html=1;fillColor=#E6E6E6;" parent="1" vertex="1">
          <mxGeometry x="345.59000000000003" y="1260" width="30.41" height="30" as="geometry" />
        </mxCell>
        <mxCell id="Q6KyBkPjPvalgUi6Rkui-49" value="5" style="ellipse;whiteSpace=wrap;html=1;fillColor=#E6E6E6;" parent="1" vertex="1">
          <mxGeometry x="471.59000000000003" y="1169" width="30.41" height="30" as="geometry" />
        </mxCell>
      </root>
    </mxGraphModel>
  </diagram>
</mxfile>
